<svg width="232" height="70" viewBox="0 0 232 70" fill="none" xmlns="http://www.w3.org/2000/svg">
<path d="M63.9104 4.21282C63.8872 4.23605 63.2898 4.27671 62.5764 4.30576C61.863 4.3348 60.8074 4.38708 60.2332 4.42193C59.659 4.45097 58.9398 4.50905 58.6382 4.5439C58.3366 4.57875 57.774 4.64265 57.397 4.68912C57.0142 4.72978 56.3356 4.86337 55.889 4.97954C55.4366 5.09571 54.8334 5.21188 54.5434 5.24092C54.2302 5.26997 53.8532 5.35129 53.6212 5.43842C53.4008 5.51973 52.9426 5.63591 52.6004 5.6998C52.2582 5.75788 51.8232 5.87405 51.6318 5.94957C51.4404 6.03088 51.0924 6.12382 50.8546 6.16448C50.6226 6.20514 50.2862 6.30969 50.1122 6.39682C49.9324 6.48976 49.683 6.5885 49.5554 6.62335C49.4278 6.6582 49.0972 6.72791 48.8246 6.77437C48.5578 6.82084 48.0126 6.96605 47.6124 7.09965C47.218 7.23325 46.667 7.43074 46.3944 7.53529C46.116 7.64565 45.6984 7.78505 45.4606 7.84314C45.2228 7.90703 44.7994 8.07548 44.5094 8.22069C44.144 8.41237 43.7554 8.55178 43.1812 8.69699C42.7346 8.80735 42.1488 8.99903 41.8762 9.12101C41.6036 9.24299 41.3194 9.36497 41.2382 9.3882C41.157 9.41144 41.0178 9.46371 40.9192 9.50437C40.8264 9.55084 40.5654 9.6612 40.3392 9.75414C40.1188 9.84708 39.7882 9.97486 39.6142 10.0271C39.4402 10.0852 39.0574 10.2421 38.7674 10.3815C38.4832 10.5151 38.0772 10.6951 37.8684 10.7706C37.6654 10.8461 37.213 11.0494 36.8592 11.2121C36.5112 11.3805 36.1806 11.5432 36.1342 11.5722C36.0878 11.6012 35.9428 11.6826 35.8152 11.7523C35.6876 11.822 35.4266 11.9498 35.2294 12.0311C35.038 12.1182 34.7364 12.2808 34.5624 12.3912C34.3884 12.5016 34.1738 12.6352 34.0752 12.6874C33.9824 12.7397 33.4604 12.9895 32.921 13.2509C32.3758 13.5064 31.8944 13.7504 31.848 13.7969C31.7958 13.8375 31.4014 14.0699 30.9722 14.308C30.543 14.5462 30.021 14.825 29.818 14.9295C29.615 15.0341 29.3656 15.1793 29.267 15.2548C29.1684 15.3303 28.9016 15.4755 28.6812 15.5801C28.455 15.6846 28.2114 15.8124 28.1302 15.8647C28.049 15.9228 27.701 16.1145 27.3588 16.2945C27.0166 16.4746 26.5874 16.736 26.4018 16.8754C26.222 17.009 25.8914 17.2181 25.6652 17.3342C25.4448 17.4562 25.1838 17.6189 25.0852 17.7002C24.9924 17.7873 24.6792 18.008 24.3892 18.1997C24.105 18.3914 23.7512 18.647 23.6062 18.7631C23.4612 18.8851 23.1654 19.0826 22.9392 19.2046C22.7188 19.3266 22.3882 19.5589 22.2142 19.7274C22.0402 19.89 21.698 20.1514 21.4602 20.3024C21.2224 20.4534 20.9208 20.68 20.7932 20.8019C20.6656 20.9239 20.4162 21.133 20.2422 21.2666C20.0682 21.4002 19.7318 21.65 19.4998 21.8242C19.262 22.0043 18.9256 22.2831 18.7458 22.4457C18.5602 22.6142 18.218 22.8988 17.9802 23.0847C17.7424 23.2647 17.3712 23.5552 17.1624 23.7178C16.9478 23.8862 16.4896 24.2754 16.1474 24.5775C15.7994 24.8795 15.3992 25.2571 15.2542 25.4139C15.1092 25.5649 14.622 26.0761 14.1638 26.5407C13.7056 27.0054 13.172 27.5979 12.9806 27.8535C12.7834 28.1148 12.4644 28.504 12.273 28.7305C12.0758 28.9513 11.7684 29.3172 11.5886 29.5437C11.4088 29.7645 11.1536 30.0607 11.0318 30.1943C10.9042 30.3279 10.7012 30.5893 10.5794 30.7751C10.4576 30.961 10.243 31.2572 10.1154 31.4373C9.98203 31.6116 9.81963 31.8497 9.75583 31.9601C9.69783 32.0646 9.51223 32.3725 9.35563 32.6281C9.19903 32.8894 9.01923 33.2554 8.96123 33.4412C8.90323 33.6329 8.81623 33.8478 8.76983 33.9292C8.72343 34.0105 8.62483 34.1673 8.54943 34.2777C8.47403 34.388 8.35223 34.7017 8.27103 34.9747C8.19563 35.2477 8.07383 35.5962 8.00423 35.7588C7.93463 35.9157 7.84183 36.1654 7.80123 36.3107C7.75483 36.4559 7.70263 36.7289 7.68523 36.9205C7.66203 37.1122 7.55183 37.6234 7.44163 38.0532C7.23863 38.8374 7.23863 38.8374 7.26763 39.7667C7.29663 40.5915 7.33143 40.7948 7.52863 41.5964C7.65623 42.0901 7.85923 42.7581 7.98103 43.0776C8.18983 43.612 8.24203 43.6933 8.64223 44.0999C8.88583 44.338 9.23383 44.6401 9.42523 44.7737C9.61663 44.9014 9.94723 45.1628 10.156 45.3545C10.359 45.5404 10.6084 45.7262 10.7012 45.7669C10.7998 45.8018 11.0956 45.8831 11.3682 45.947C11.6408 46.0109 12.0584 46.1328 12.2962 46.22C12.6964 46.3594 12.853 46.3768 14.129 46.4291C15.463 46.4872 15.5558 46.4814 16.101 46.3652C16.42 46.2955 16.9942 46.2142 17.3886 46.1851C17.9512 46.1387 18.1948 46.0922 18.5254 45.9586C18.769 45.8598 19.1634 45.7611 19.4534 45.7262C19.7376 45.6914 20.045 45.6217 20.1436 45.5694C20.248 45.5113 20.4452 45.4126 20.5902 45.3371C20.7352 45.2674 21.0078 45.1803 21.1992 45.1396C21.3906 45.1047 21.7502 44.9828 21.9938 44.8724C22.2432 44.762 22.655 44.6343 22.916 44.5878C23.177 44.5413 23.4322 44.4658 23.4844 44.4193C23.5366 44.3787 23.6642 44.2974 23.7744 44.2393C23.8846 44.187 24.1282 44.0882 24.3254 44.0244C24.5226 43.9605 24.9808 43.763 25.3462 43.5887C25.7116 43.4087 26.367 43.095 26.7962 42.8917C27.2254 42.6826 27.7242 42.4386 27.8982 42.3515C28.0722 42.2644 28.3158 42.1598 28.4376 42.1192C28.5652 42.0785 28.8088 41.9623 28.9886 41.8636C29.1742 41.759 29.4294 41.608 29.5686 41.5209C29.702 41.4338 29.9456 41.3118 30.1138 41.2421C30.2762 41.1782 30.4444 41.1375 30.4908 41.155C30.5314 41.1724 30.5662 41.2653 30.5662 41.3582C30.5662 41.4512 30.4212 41.8868 30.2472 42.3167C30.0732 42.7523 29.8528 43.2576 29.76 43.4435C29.6672 43.6294 29.5454 43.9314 29.4932 44.1173C29.4352 44.3206 29.4062 44.5645 29.4236 44.7098C29.4352 44.855 29.5512 45.1396 29.702 45.401C29.8412 45.6449 30.0326 45.9354 30.1254 46.0457C30.2182 46.1561 30.4502 46.3652 30.6474 46.5162C30.8504 46.673 31.152 46.8357 31.3492 46.8996C31.5406 46.9577 32.0278 47.0332 32.4396 47.068C33.0776 47.1261 33.2516 47.1203 33.7446 47.0274C34.052 46.9751 34.5334 46.8763 34.8118 46.8183C35.0902 46.7544 35.4208 46.7079 35.5368 46.7079C35.6586 46.7079 35.792 46.7311 35.8384 46.7602C35.8906 46.795 35.9022 46.8647 35.8848 46.946C35.8616 47.0332 35.7282 47.1551 35.5136 47.2829C35.328 47.3933 35.096 47.5559 34.9916 47.6431C34.893 47.7302 34.5508 47.9858 34.2376 48.2123C33.9244 48.4388 33.4314 48.8048 33.1414 49.0197C32.8514 49.2346 32.4338 49.5541 32.2134 49.7341C31.993 49.9084 31.6856 50.1407 31.5232 50.2511C31.3666 50.3614 31.065 50.6054 30.8562 50.8029C30.6474 51.0004 30.3516 51.2501 30.1892 51.3547C30.0326 51.4651 29.6904 51.7381 29.4294 51.9646C29.1742 52.1853 28.6058 52.6326 28.165 52.952C27.7242 53.2715 27.1616 53.6897 26.918 53.8872C26.6744 54.0789 26.2684 54.3867 26.0132 54.5668C25.758 54.7469 25.2302 55.1418 24.8474 55.4323C24.4588 55.7285 23.8208 56.2164 23.4264 56.5185C23.032 56.8205 22.5912 57.1748 22.4462 57.3084C22.3012 57.4362 21.9242 57.7324 21.6052 57.959C21.2862 58.1855 20.9324 58.4701 20.8222 58.5863C20.712 58.7025 20.451 58.9232 20.2422 59.0684C20.0334 59.2136 19.7376 59.4576 19.5752 59.6144C19.4186 59.7654 19.1286 59.9978 18.9372 60.1314C18.7458 60.265 18.4616 60.4857 18.2992 60.6193C18.1426 60.7529 17.8932 60.9387 17.7482 61.0375C17.6032 61.1362 17.1798 61.4964 16.8028 61.8333C16.4258 62.176 15.9792 62.5361 15.8168 62.6464C15.6486 62.751 14.883 63.3899 14.1116 64.0637C13.1662 64.8943 12.6616 65.3764 12.5572 65.5507C12.4702 65.6959 12.4122 65.8702 12.4238 65.9399C12.4354 66.0096 12.4818 66.0967 12.534 66.1257C12.6036 66.1722 12.7022 66.1606 12.8936 66.0851C13.0386 66.0328 13.3344 65.8295 13.549 65.6436C13.7694 65.452 14.0942 65.1964 14.2682 65.0686C14.4422 64.9466 14.7844 64.6794 15.0222 64.4761C15.26 64.2786 15.8516 63.8198 16.3272 63.4654C16.8086 63.1053 17.3596 62.6755 17.551 62.5012C17.7482 62.327 18.0788 62.054 18.276 61.8913C18.479 61.7287 18.8676 61.4615 19.1402 61.2931C19.4128 61.1246 19.8188 60.811 20.0392 60.596C20.2654 60.3811 20.7062 60.021 21.0252 59.7945C21.3442 59.5679 21.698 59.2833 21.8082 59.1671C21.9184 59.051 22.1214 58.8767 22.2606 58.778C22.394 58.685 22.684 58.4527 22.8986 58.261C23.1132 58.0693 23.5482 57.7324 23.8672 57.5117C24.1862 57.2968 24.6386 56.9541 24.8706 56.7624C25.1026 56.5649 25.439 56.3094 25.6246 56.1932C25.8044 56.077 26.2452 55.7575 26.5932 55.4787C26.947 55.2057 27.44 54.834 27.6952 54.6539C27.9504 54.4739 28.3042 54.1776 28.4782 53.9976C28.6522 53.8175 29.0466 53.5038 29.3482 53.3005C29.6498 53.0972 30.1892 52.679 30.5372 52.3712C30.891 52.0691 31.3202 51.7206 31.4942 51.6045C31.6682 51.4825 31.9698 51.256 32.1612 51.0933C32.3526 50.9307 32.6716 50.6867 32.8688 50.5531C33.066 50.4195 33.443 50.1407 33.7098 49.9374C33.9766 49.7283 34.4522 49.345 34.7712 49.0894C35.0902 48.8338 35.5716 48.4737 35.8326 48.2994C36.0994 48.1194 36.5344 47.7883 36.7896 47.5617C37.0506 47.3294 37.474 46.9867 37.7292 46.795C37.9844 46.6033 38.3382 46.3303 38.5122 46.1851C38.6862 46.0341 38.924 45.854 39.0342 45.7785C39.1444 45.6972 39.2894 45.5868 39.3532 45.5288C39.417 45.4707 39.736 45.25 40.0608 45.035C40.3856 44.8201 40.809 44.5413 41.0004 44.4135C41.1976 44.2857 41.5746 44.065 41.8414 43.9198C42.1024 43.7746 42.4098 43.5945 42.52 43.5132C42.6302 43.4319 42.8448 43.2983 42.9956 43.2228C43.1522 43.1415 43.419 42.9556 43.593 42.8046C43.767 42.6535 44.0048 42.4619 44.1266 42.3689C44.2426 42.2818 44.4456 42.1192 44.579 42.003C44.7124 41.8926 44.9386 41.7358 45.0894 41.6661C45.3562 41.5325 45.4084 41.5267 47.0904 41.5151L48.813 41.5035L49.2074 41.3176C49.4394 41.2072 49.6946 41.1317 49.828 41.1317C49.9904 41.1317 50.0658 41.1608 50.1122 41.2421C50.1412 41.306 50.1702 41.4338 50.1702 41.5325C50.1702 41.6254 50.0774 41.8578 49.9672 42.0495C49.8164 42.305 49.7352 42.5432 49.6482 42.9963C49.5844 43.3273 49.5322 43.7223 49.5322 43.8675C49.5322 44.0127 49.5728 44.2625 49.6192 44.4251C49.6656 44.5878 49.7584 44.7853 49.828 44.8724C49.8976 44.9595 50.0716 45.0873 50.2166 45.1628C50.3674 45.2383 50.6864 45.3545 50.93 45.4242C51.1678 45.4881 51.5216 45.5462 51.7188 45.5462C51.9102 45.5462 52.1944 45.5055 52.351 45.4591C52.5076 45.4068 53.0354 45.3429 53.5226 45.3138C54.0156 45.2848 54.468 45.2441 54.5376 45.2209C54.6072 45.2035 54.8682 45.0931 55.1176 44.9828C55.367 44.8724 55.7846 44.7272 56.0456 44.6691C56.3646 44.5936 56.6836 44.46 57.02 44.2683C57.2984 44.1057 57.5362 43.9779 57.5536 43.9779C57.571 43.9779 57.803 43.8501 58.0698 43.6933C58.3366 43.5306 58.7194 43.2867 58.9282 43.1415C59.137 42.9963 59.5778 42.7349 59.9142 42.5664C60.2506 42.3922 60.9524 42.0262 61.4802 41.7532C62.2632 41.3408 62.5416 41.155 63.023 40.7367C63.342 40.4579 63.864 40.063 64.183 39.8597C64.4962 39.6564 64.9776 39.3369 65.2502 39.1568C65.5228 38.9768 65.9056 38.7444 66.1028 38.6399C66.3 38.5411 66.532 38.4598 66.6132 38.4598C66.6944 38.4598 66.7582 38.483 66.7582 38.5063C66.7582 38.5295 66.677 38.6805 66.5784 38.8432C66.474 39 66.126 39.4124 65.7954 39.7551C65.4648 40.1036 65.1922 40.4057 65.1922 40.4289C65.1922 40.4579 65.0008 40.638 64.763 40.8413C64.502 41.0562 64.2178 41.3641 64.0496 41.6138C63.8988 41.8462 63.5624 42.2528 63.3072 42.5258C63.052 42.7988 62.7736 43.1647 62.6866 43.339C62.5938 43.519 62.5242 43.7572 62.5242 43.8791C62.5242 44.0011 62.559 44.1696 62.6054 44.2567C62.6518 44.3438 62.7504 44.4716 62.8258 44.5355C62.8954 44.6052 63.0172 44.6923 63.0868 44.7272C63.1622 44.762 63.4406 44.8608 63.7132 44.9363C63.9858 45.0176 64.2758 45.0815 64.357 45.0815C64.4382 45.0815 64.7166 44.9944 64.9776 44.884C65.2386 44.7795 65.517 44.6691 65.5982 44.6459C65.6794 44.6226 65.9288 44.5239 66.1492 44.431C66.3754 44.338 66.6712 44.2044 66.8104 44.1405C66.9554 44.0766 67.1526 43.9663 67.2454 43.8908C67.344 43.8153 67.6688 43.6352 67.9646 43.4842C68.2604 43.3331 68.6896 43.0718 68.9158 42.9033C69.1768 42.7116 69.4494 42.5664 69.6582 42.5083C69.8844 42.4444 70.0758 42.3341 70.273 42.1598C70.4296 42.0204 70.6152 41.8752 70.6848 41.8404C70.7544 41.7997 70.8646 41.7707 70.9284 41.7707C71.0038 41.7707 71.1778 41.9333 71.433 42.2353C71.6418 42.4909 71.8912 42.7523 71.9782 42.8162C72.071 42.8859 72.2856 42.9788 72.4538 43.0253C72.622 43.0776 72.8946 43.1763 73.0512 43.2518C73.318 43.3796 73.4282 43.3912 74.5592 43.4087C75.6496 43.4261 75.899 43.4087 76.9082 43.2634C77.5288 43.1705 78.3524 43.0253 78.7352 42.9265C79.118 42.8336 79.5646 42.7581 79.7212 42.7581C79.8836 42.7581 80.2722 42.6942 80.5912 42.6187C80.9102 42.5432 81.3916 42.4502 81.6642 42.4154C81.9368 42.3864 82.395 42.2818 82.6792 42.1889C83.0098 42.0843 83.3926 42.0088 83.7232 41.9856C84.0132 41.9623 84.4134 41.8984 84.6106 41.8345C84.8078 41.7707 85.121 41.6893 85.3066 41.6603C85.4864 41.6254 85.962 41.5732 86.3564 41.5383C86.8726 41.4918 87.2032 41.428 87.5512 41.3002C87.963 41.155 88.1196 41.1317 88.6126 41.1317C89.1056 41.1317 89.21 41.1143 89.3376 41.0097C89.4246 40.9458 89.5232 40.7948 89.558 40.6728C89.616 40.487 89.6044 40.4115 89.5058 40.1849C89.4304 40.0107 89.3202 39.8829 89.1926 39.8132C89.0476 39.7377 88.8852 39.7086 88.5372 39.7202C88.282 39.7202 87.8412 39.7667 87.5512 39.819C87.267 39.8713 86.7276 39.9119 86.3564 39.9119C85.9214 39.9119 85.585 39.941 85.3994 39.9991C85.1732 40.0688 84.9296 40.0804 84.2162 40.0571C83.7232 40.0397 83.0446 39.9932 82.7082 39.9642C82.3718 39.9294 81.8788 39.8655 81.6062 39.8248C81.3336 39.7783 80.7768 39.6738 80.3592 39.5925C79.9474 39.5053 79.3848 39.3717 79.118 39.2904C78.8512 39.2091 78.4278 39.0929 78.1784 39.0348C77.929 38.9768 77.5578 38.8548 77.3606 38.7618C77.1576 38.6689 76.8328 38.5469 76.6298 38.4888C76.4326 38.4308 76.1832 38.3088 76.073 38.2158C75.928 38.0997 75.8352 37.9487 75.7482 37.6815C75.6844 37.4782 75.5742 37.2633 75.5162 37.211C75.4524 37.1529 75.2784 37.0948 75.1276 37.0832C74.8782 37.06 74.8144 37.0832 74.5012 37.2981C74.1764 37.5246 74.1358 37.5421 73.8168 37.5188C73.55 37.4956 73.3354 37.4201 72.7148 37.1064C72.2972 36.8973 71.8448 36.7056 71.7172 36.6824C71.5896 36.6592 71.433 36.6185 71.3692 36.5837C71.3054 36.5488 71.2242 36.4849 71.1836 36.4326C71.143 36.3804 71.114 36.2584 71.114 36.1654C71.114 36.0667 71.1546 35.9389 71.2126 35.875C71.2648 35.8053 71.5316 35.5846 71.8042 35.3697C72.0768 35.1606 72.448 34.8992 72.6278 34.783C72.8076 34.6668 73.115 34.4229 73.3122 34.2428C73.5094 34.057 73.985 33.6794 74.3736 33.3948C74.7622 33.1102 75.2204 32.7849 75.3828 32.6745C75.551 32.5642 75.7308 32.3957 75.7772 32.3028C75.8236 32.2098 75.8642 32.0588 75.8642 31.9659C75.8642 31.873 75.8062 31.7103 75.7308 31.6C75.6496 31.4838 75.4988 31.3618 75.3306 31.2921C75.1508 31.2166 75.0058 31.1934 74.8608 31.2224C74.7216 31.2456 74.5186 31.385 74.2286 31.6464C73.9966 31.8555 73.6602 32.1343 73.4862 32.2621C73.3122 32.3957 72.9816 32.6745 72.7612 32.8836C72.535 33.0927 71.9898 33.5226 71.549 33.842C71.1082 34.1615 70.6268 34.5216 70.4876 34.6378C70.3484 34.7598 70.2092 34.8585 70.1802 34.8585C70.157 34.8585 69.9888 34.9747 69.809 35.1199C69.6292 35.2651 69.3972 35.422 69.2812 35.4684C69.171 35.5149 68.968 35.5555 68.8288 35.5555C68.6548 35.5555 68.504 35.5091 68.3184 35.3871C68.1734 35.2942 67.7268 35.0618 67.3208 34.8701C66.9206 34.6785 66.4566 34.4287 66.2826 34.3183C66.1144 34.208 65.8476 34.0511 65.6852 33.9698C65.5286 33.8885 65.256 33.7665 65.0878 33.7026C64.9196 33.6329 64.647 33.511 64.4788 33.4296C64.3164 33.3425 63.9568 33.1044 63.69 32.8894C63.4174 32.6803 63.0172 32.3318 62.791 32.1227C62.5648 31.9078 62.2632 31.6638 62.1182 31.5767C61.9732 31.4896 61.7818 31.3502 61.689 31.2747C61.5962 31.1934 61.3816 30.9552 61.2076 30.7461C61.0394 30.5312 60.8248 30.1711 60.7262 29.9503C60.6334 29.7238 60.5058 29.4392 60.4362 29.3114C60.3724 29.1894 60.3202 28.9861 60.3202 28.8641C60.3202 28.6957 60.3666 28.5911 60.529 28.4169C60.6392 28.2891 60.8538 28.1265 61.0046 28.0568C61.1554 27.9813 61.3816 27.8244 61.5092 27.7082C61.6368 27.5863 62.0138 27.2145 62.3502 26.8776C62.6866 26.5407 63.0462 26.1806 63.1506 26.0761C63.255 25.9715 63.5856 25.6462 63.8872 25.3616C64.183 25.0712 64.6064 24.6936 64.8152 24.5194C65.0298 24.3451 65.4706 23.9385 65.7954 23.6191C66.1144 23.2996 66.4972 22.9453 66.6364 22.8349C66.7814 22.7245 66.9902 22.5503 67.1004 22.4574C67.2164 22.3586 67.4426 22.1727 67.5992 22.045C67.7616 21.9172 68.0748 21.6964 68.2952 21.557C68.5214 21.4176 68.7418 21.2724 68.7882 21.2318C68.8346 21.1969 69.0434 21.0807 69.2522 20.9762C69.461 20.8774 69.7858 20.7148 69.9772 20.6161C70.1686 20.5173 70.476 20.3314 70.6558 20.2095C70.8414 20.0875 71.2068 19.9132 71.4678 19.8203C71.7346 19.7274 72.2102 19.5531 72.5292 19.4427C72.8482 19.3266 73.3702 19.1058 73.6892 18.949C74.0082 18.7864 74.3852 18.6237 74.5302 18.5773C74.6752 18.5308 74.9072 18.4611 75.0522 18.4204C75.1972 18.3856 75.4292 18.3101 75.5742 18.2636C75.7192 18.2113 75.9686 18.101 76.1252 18.008C76.2876 17.9209 76.6124 17.7931 76.8502 17.7292C77.088 17.6595 77.5056 17.5027 77.7782 17.3691C78.0508 17.2355 78.4568 17.0671 78.6772 16.9857C78.9034 16.9102 79.3036 16.7534 79.5762 16.643C79.8488 16.5385 80.2664 16.3933 80.5042 16.3352C80.742 16.2713 81.3046 16.0912 81.7512 15.9286C82.1978 15.7718 82.7836 15.5626 83.0446 15.4639C83.3114 15.3652 83.7174 15.2432 83.9436 15.1909C84.1756 15.1386 84.4714 15.0457 84.6106 14.9876C84.744 14.9237 84.976 14.825 85.121 14.7553C85.266 14.6914 85.585 14.5868 85.8286 14.5171C86.0722 14.4532 86.3564 14.3777 86.4492 14.3545C86.5478 14.3254 86.7566 14.2674 86.9132 14.2209C87.0756 14.1744 87.3598 14.0699 87.557 13.9885C87.7484 13.9072 88.0732 13.8027 88.282 13.7504C88.485 13.7039 88.8562 13.64 89.1056 13.6052C89.384 13.5645 89.7436 13.46 90.0278 13.338C90.2946 13.216 90.6948 13.0998 90.9906 13.0534C91.269 13.0069 91.6518 12.9024 91.8432 12.821C92.0346 12.7397 92.4406 12.6352 92.7422 12.5829C93.0438 12.5306 93.4382 12.4493 93.6122 12.397C93.7862 12.3447 94.1806 12.2286 94.4822 12.1356C94.7838 12.0427 95.2188 11.9439 95.4392 11.9149C95.6654 11.8859 96.054 11.822 96.3092 11.7697C96.5644 11.7174 96.9588 11.6303 97.1792 11.5664C97.4054 11.5025 98.084 11.3747 98.6872 11.276C99.2962 11.1772 99.9864 11.0611 100.224 11.0146C100.462 10.9681 101.013 10.881 101.442 10.8171C101.871 10.7474 102.457 10.6719 102.747 10.637C103.031 10.6022 103.582 10.5092 103.965 10.4279C104.429 10.3292 104.998 10.2653 105.676 10.2362C106.285 10.2014 106.912 10.1375 107.242 10.0678C107.544 9.9981 108.118 9.92839 108.518 9.91097C108.918 9.88773 109.742 9.81223 110.345 9.73671C110.954 9.6612 111.813 9.57988 112.259 9.56246C112.706 9.54503 113.176 9.50437 113.303 9.46952C113.431 9.43467 114.005 9.38239 114.579 9.34754C115.153 9.31269 115.768 9.28365 115.942 9.28365C116.116 9.28365 116.627 9.31269 117.073 9.34754C117.52 9.38239 118.094 9.46371 118.349 9.52761C118.604 9.5915 118.918 9.68444 119.045 9.73671C119.173 9.78899 119.358 9.87031 119.463 9.91678C119.561 9.96325 119.672 9.9981 119.706 9.9981C119.741 9.9981 119.904 10.062 120.078 10.1375C120.246 10.213 120.542 10.3931 120.733 10.5383C120.919 10.6835 121.156 10.8868 121.261 10.9972C121.365 11.1017 121.493 11.2934 121.551 11.4212C121.638 11.6129 121.649 11.7929 121.638 12.4609C121.632 13.0243 121.591 13.4077 121.51 13.7504C121.446 14.0176 121.342 14.3487 121.284 14.4823C121.226 14.6217 121.087 14.8772 120.977 15.0515C120.861 15.2258 120.681 15.5743 120.565 15.824C120.449 16.0738 120.217 16.4397 120.043 16.6372C119.875 16.8347 119.556 17.2704 119.335 17.6072C119.121 17.9441 118.848 18.3565 118.732 18.5308C118.616 18.7051 118.21 19.1639 117.827 19.5531C117.288 20.1049 117.073 20.2792 116.87 20.3489C116.725 20.3953 116.464 20.4825 116.29 20.5405C116.116 20.5986 115.774 20.7497 115.53 20.8716C115.287 20.9936 115.055 21.0924 115.014 21.0924C114.974 21.0924 114.568 21.284 114.121 21.5164C113.669 21.7545 113.187 22.0275 113.042 22.1205C112.897 22.2192 112.625 22.3528 112.433 22.4225C112.242 22.4922 111.894 22.6548 111.662 22.7826C111.43 22.9104 111.053 23.1311 110.832 23.2764C110.612 23.4216 110.09 23.712 109.672 23.9211C109.255 24.1302 108.75 24.4206 108.547 24.5658C108.344 24.7169 107.967 24.9666 107.7 25.1293C107.434 25.2861 107.103 25.5068 106.958 25.6172C106.819 25.7217 106.54 25.8844 106.349 25.9715C106.152 26.0586 105.908 26.2038 105.798 26.2968C105.688 26.3897 105.386 26.6162 105.131 26.7963C104.87 26.9822 104.464 27.2668 104.226 27.4294C103.988 27.5979 103.716 27.8012 103.617 27.8883C103.524 27.9754 103.316 28.1148 103.159 28.2078C102.997 28.2949 102.765 28.4692 102.637 28.5853C102.504 28.7015 102.219 28.9164 101.993 29.0616C101.773 29.2068 101.425 29.4682 101.228 29.6367C101.036 29.8109 100.653 30.1478 100.387 30.3918C100.126 30.6357 99.7892 30.9087 99.6442 31.0075C99.4992 31.1062 99.3078 31.2747 99.2092 31.3734C99.1164 31.478 98.9308 31.6406 98.8032 31.7335C98.6814 31.8265 98.1942 32.2331 97.7302 32.6397C97.2662 33.0405 96.4832 33.7781 95.9902 34.2777C95.4914 34.7714 94.9346 35.3581 94.7432 35.5846C94.5518 35.8053 94.2386 36.1538 94.0414 36.3513C93.8268 36.572 93.5426 36.9612 93.3222 37.3388C93.1192 37.6873 92.8466 38.1229 92.719 38.3146C92.5102 38.6224 92.4812 38.7038 92.4812 38.9942C92.4812 39.2381 92.5102 39.3659 92.603 39.4879C92.6668 39.575 92.8118 39.7086 92.9162 39.7783C93.0554 39.8771 93.1946 39.9119 93.4034 39.9119C93.6528 39.9119 93.8152 39.8538 94.314 39.6041C94.6446 39.4414 94.9984 39.2672 95.0912 39.2323C95.1898 39.1917 95.445 39.0407 95.6596 38.9012C95.88 38.7618 96.1294 38.6166 96.2106 38.5876C96.2976 38.5527 96.518 38.483 96.7094 38.425C96.895 38.3669 97.1212 38.2681 97.2024 38.1984C97.2836 38.1287 97.6664 37.9138 98.0492 37.7221C98.432 37.5304 98.8264 37.333 98.9192 37.2807C99.0178 37.2284 99.2498 37.118 99.4354 37.0367C99.621 36.9554 99.9284 36.7695 100.108 36.6301C100.294 36.4907 100.584 36.2526 100.752 36.1015C100.926 35.9563 101.257 35.7472 101.489 35.6369C101.726 35.5323 102.086 35.3232 102.295 35.178C102.504 35.0328 102.852 34.8237 103.066 34.7133C103.287 34.603 103.611 34.3764 103.791 34.208C103.977 34.0395 104.168 33.8769 104.22 33.8478C104.273 33.8188 104.545 33.6097 104.829 33.3832C105.108 33.1624 105.502 32.8546 105.705 32.7094C105.902 32.5642 106.221 32.3318 106.407 32.1924C106.598 32.0472 106.784 31.8962 106.825 31.8555C106.865 31.8149 107.207 31.5535 107.579 31.2805C107.95 31.0017 108.396 30.6415 108.559 30.4731C108.727 30.3047 109.104 29.9794 109.4 29.747C109.696 29.5205 110.073 29.1778 110.229 28.9919C110.392 28.8119 110.612 28.6028 110.722 28.5389C110.832 28.475 111.227 28.0974 111.598 27.7024C111.969 27.3075 112.451 26.8428 112.671 26.6685C112.891 26.4943 113.321 26.0761 113.622 25.7508C113.924 25.4197 114.463 24.8563 114.817 24.502C115.171 24.1418 115.797 23.5435 116.215 23.1602C116.627 22.7826 117.079 22.3354 117.218 22.1611C117.352 21.9927 117.613 21.7139 117.798 21.5454C117.978 21.377 118.245 21.1388 118.384 21.0168C118.523 20.8949 118.877 20.6858 119.161 20.5464C119.451 20.4128 119.788 20.2734 119.915 20.2385C120.043 20.2037 120.408 20.0991 120.727 20.0004C121.046 19.9074 121.423 19.7971 121.568 19.7622C121.713 19.7274 122.2 19.6228 122.659 19.5241C123.117 19.4311 123.581 19.3498 123.691 19.3498C123.801 19.3498 124.051 19.4021 124.248 19.4718C124.439 19.5357 124.752 19.6925 124.932 19.8145C125.118 19.9423 125.327 20.1107 125.39 20.1978C125.46 20.285 125.541 20.4534 125.576 20.5696C125.628 20.7438 125.622 20.9355 125.547 21.4815C125.495 21.8591 125.419 22.2599 125.385 22.3702C125.35 22.4806 125.193 22.8059 125.031 23.0963C124.874 23.3809 124.671 23.712 124.584 23.8224C124.497 23.9385 124.352 24.1709 124.259 24.3451C124.172 24.5194 123.969 24.8447 123.801 25.0712C123.639 25.2919 123.442 25.5823 123.355 25.7101C123.273 25.8379 123.001 26.1632 122.757 26.4362C122.508 26.7092 122.235 27.0287 122.142 27.1506C122.055 27.2726 121.76 27.5688 121.487 27.8128C121.209 28.051 120.988 28.2659 120.988 28.2949C120.988 28.3181 120.872 28.4866 120.727 28.6608C120.588 28.8351 120.379 29.0384 120.269 29.1023C120.165 29.172 120.014 29.3114 119.944 29.416C119.875 29.5147 119.654 29.7296 119.463 29.8923C119.266 30.0491 118.964 30.3337 118.79 30.5254C118.61 30.7113 118.349 30.9436 118.204 31.0423C118.059 31.1411 117.787 31.3618 117.595 31.5419C117.404 31.7219 116.83 32.1982 116.319 32.6048C115.809 33.0114 115.153 33.5342 114.858 33.7665C114.568 33.9989 113.964 34.4752 113.524 34.8295C113.083 35.178 112.625 35.5614 112.503 35.6775C112.387 35.7937 112.108 35.997 111.894 36.1248C111.679 36.2584 111.383 36.4617 111.233 36.5837C111.082 36.7056 110.798 36.9322 110.6 37.0948C110.403 37.2516 110.038 37.5769 109.783 37.8034C109.533 38.0358 109.232 38.2797 109.11 38.3494C108.994 38.4191 108.826 38.5644 108.739 38.6805C108.623 38.8257 108.576 38.9535 108.576 39.1104C108.576 39.2323 108.617 39.4124 108.663 39.4995C108.71 39.5925 108.831 39.697 108.936 39.7435C109.04 39.79 109.249 39.8248 109.394 39.819C109.568 39.819 109.754 39.7609 109.933 39.6622C110.084 39.5808 110.339 39.4008 110.496 39.2614C110.658 39.122 111.006 38.8141 111.267 38.5702C111.523 38.3262 111.946 37.9312 112.201 37.6931C112.456 37.4491 112.81 37.1645 112.99 37.0541C113.17 36.938 113.442 36.7347 113.599 36.5953C113.756 36.4559 113.988 36.2584 114.115 36.1654C114.243 36.0667 114.475 35.8692 114.637 35.724C114.794 35.5788 115.02 35.3987 115.13 35.3232C115.24 35.2477 115.478 35.0502 115.652 34.8876C115.826 34.7191 116.209 34.4113 116.493 34.1964C116.783 33.9756 117.12 33.691 117.253 33.5574C117.381 33.4296 117.613 33.2089 117.775 33.0753C117.932 32.9417 118.32 32.6571 118.639 32.4422C118.958 32.2273 119.521 31.7916 119.886 31.4664C120.252 31.1469 120.71 30.7229 120.901 30.5254C121.093 30.3337 121.406 30.0665 121.603 29.9329C121.794 29.8051 122.096 29.5612 122.276 29.3869C122.467 29.201 122.775 28.9919 123.053 28.8525C123.302 28.7305 123.604 28.5563 123.714 28.4692C123.824 28.382 124.085 28.2136 124.294 28.0974C124.503 27.9813 124.903 27.6908 125.193 27.4527C125.477 27.2145 125.883 26.9357 126.092 26.837C126.295 26.7382 126.562 26.5756 126.672 26.471C126.788 26.3665 127.113 26.1399 127.397 25.9599C127.687 25.7856 128.087 25.5649 128.296 25.472C128.499 25.379 128.812 25.1815 128.981 25.0305C129.155 24.8795 129.485 24.653 129.711 24.531C129.938 24.409 130.28 24.258 130.465 24.1999C130.657 24.1418 130.941 24.0024 131.103 23.8862C131.266 23.7759 131.631 23.5668 131.921 23.4158C132.205 23.2705 132.623 23.0324 132.843 22.8988C133.064 22.7594 133.481 22.5561 133.771 22.4457C134.061 22.3354 134.485 22.1844 134.705 22.1088C134.931 22.0391 135.308 21.8881 135.546 21.7719C135.784 21.6616 136.196 21.499 136.457 21.4118C136.718 21.3247 137.083 21.1621 137.269 21.0517C137.454 20.9355 137.762 20.7729 137.953 20.68C138.145 20.587 138.382 20.5115 138.481 20.5115C138.574 20.5115 138.684 20.5405 138.725 20.5812C138.765 20.6219 138.794 20.738 138.794 20.8426C138.794 20.9529 138.759 21.1098 138.713 21.1969C138.667 21.284 138.527 21.4467 138.406 21.5628C138.284 21.679 138.092 21.83 137.982 21.9055C137.872 21.9811 137.524 22.2947 137.217 22.5968C136.909 22.9046 136.347 23.4622 135.97 23.834C135.593 24.2057 135.111 24.653 134.902 24.8214C134.694 24.9957 133.882 25.7682 133.104 26.5407C132.327 27.3075 131.585 28.0161 131.457 28.109C131.33 28.202 131.086 28.4343 130.924 28.626C130.755 28.8177 130.39 29.172 130.112 29.4043C129.827 29.6425 129.369 30.0549 129.085 30.3279C128.801 30.6009 128.256 31.1237 127.879 31.4896C127.502 31.8555 127.125 32.2215 127.043 32.3028C126.956 32.3841 126.429 32.9185 125.866 33.4935C125.303 34.0744 124.7 34.7191 124.526 34.9398C124.352 35.1548 124.178 35.4161 124.138 35.5149C124.103 35.6194 124.068 35.7763 124.068 35.875C124.062 35.968 124.109 36.1422 124.167 36.2468C124.225 36.3745 124.364 36.5023 124.52 36.5837C124.677 36.665 124.88 36.7172 125.042 36.7172C125.187 36.7172 125.535 36.6534 125.814 36.5778C126.092 36.5023 126.423 36.3804 126.545 36.3048C126.672 36.2293 126.968 36.0493 127.206 35.9099C127.438 35.7705 127.78 35.5497 127.971 35.422C128.157 35.2942 128.563 35.0793 128.87 34.9515C129.178 34.8179 129.63 34.603 129.874 34.4635C130.117 34.33 130.483 34.1092 130.686 33.9698C130.889 33.8304 131.272 33.6039 131.544 33.4703C131.817 33.3309 132.327 33.0347 132.675 32.8023C133.029 32.57 133.47 32.2912 133.661 32.1866C133.853 32.0821 134.23 31.8613 134.502 31.7045C134.775 31.5477 135.285 31.2456 135.633 31.0365C135.987 30.8216 136.428 30.5312 136.619 30.386C136.811 30.235 137.083 30.0491 137.228 29.9678C137.373 29.8864 137.547 29.7993 137.623 29.7761C137.698 29.7528 137.936 29.6309 138.145 29.5089C138.359 29.3811 138.806 29.1488 139.136 28.9919C139.467 28.8293 139.925 28.5563 140.151 28.3878C140.378 28.2136 140.813 27.9464 141.114 27.7896C141.416 27.6327 141.903 27.3481 142.187 27.1564C142.477 26.9648 142.843 26.7324 142.999 26.6395C143.162 26.5524 143.33 26.4478 143.376 26.4071C143.423 26.3665 143.805 26.1458 144.217 25.9134C144.635 25.6869 145 25.4662 145.029 25.4313C145.064 25.3907 145.151 25.3093 145.232 25.2571C145.308 25.2048 145.429 25.1583 145.505 25.1583C145.574 25.1583 145.65 25.1874 145.667 25.2222C145.69 25.2512 145.563 25.4255 145.383 25.6056C145.203 25.7798 144.913 26.0993 144.745 26.3142C144.571 26.5233 144.229 26.8951 143.974 27.1332C143.718 27.3714 143.336 27.7199 143.121 27.9057C142.912 28.0974 142.651 28.3704 142.553 28.5156C142.454 28.6667 142.106 29.0616 141.793 29.3985C141.474 29.7354 141.027 30.2582 140.807 30.5602C140.581 30.8623 140.354 31.1527 140.302 31.1992C140.25 31.2456 140.111 31.4083 139.989 31.5593C139.873 31.7045 139.676 32.0588 139.56 32.3434C139.397 32.7442 139.351 32.9359 139.345 33.2321C139.345 33.5342 139.374 33.6445 139.479 33.7956C139.548 33.8943 139.751 34.0511 139.925 34.1325C140.233 34.2835 140.262 34.2893 141.126 34.2661C141.833 34.2486 142.083 34.2196 142.361 34.1208C142.553 34.057 142.93 33.935 143.202 33.8478C143.475 33.7665 143.829 33.6155 143.985 33.5226C144.148 33.4296 144.548 33.2205 144.884 33.0579C145.215 32.8894 145.65 32.692 145.841 32.6106C146.033 32.5293 146.491 32.3086 146.856 32.1169C147.222 31.931 147.691 31.6813 147.894 31.5709C148.167 31.4257 148.329 31.3734 148.474 31.385C148.654 31.4025 148.683 31.4257 148.701 31.5651C148.718 31.7045 148.648 31.8032 148.237 32.2098C147.97 32.4712 147.686 32.8197 147.599 32.9766C147.465 33.2205 147.436 33.3715 147.401 33.8885C147.367 34.4519 147.372 34.5216 147.471 34.632C147.529 34.7017 147.686 34.8062 147.819 34.8585C147.947 34.9166 148.202 34.9921 148.387 35.0328C148.637 35.0851 148.846 35.0851 149.252 35.0328C149.547 34.9979 149.965 34.9282 150.185 34.8818C150.406 34.8353 150.771 34.7714 150.997 34.7424C151.235 34.7133 151.577 34.6146 151.798 34.51C152.024 34.4113 152.378 34.3067 152.639 34.2719C152.888 34.237 153.225 34.1673 153.381 34.1208C153.544 34.0686 153.7 34.0105 153.729 33.9873C153.764 33.964 154.037 33.8653 154.338 33.7665C154.64 33.6736 155.115 33.5284 155.388 33.4412C155.666 33.3541 156.229 33.116 156.635 32.9127C157.29 32.5816 157.424 32.5351 157.708 32.5351C157.975 32.5351 158.073 32.5642 158.271 32.7036C158.398 32.7965 158.52 32.9069 158.543 32.9359C158.561 32.9708 158.682 33.0521 158.81 33.1218C158.938 33.1857 159.204 33.2902 159.402 33.3541C159.605 33.418 160.063 33.4935 160.457 33.5226C160.84 33.5516 161.258 33.6039 161.385 33.6445C161.519 33.6794 161.756 33.6968 161.936 33.6736C162.11 33.6562 162.545 33.6039 162.905 33.5574C163.259 33.511 163.653 33.4412 163.781 33.4064C163.908 33.3774 164.471 33.296 165.033 33.2321C165.59 33.1683 166.176 33.0753 166.327 33.023C166.478 32.9708 166.715 32.8778 166.855 32.8197C166.988 32.7558 167.278 32.6629 167.493 32.6106C167.707 32.5642 168.096 32.4596 168.351 32.3841C168.612 32.3086 168.885 32.2447 168.948 32.2447C169.018 32.2447 169.134 32.3028 169.209 32.3783C169.291 32.4596 169.383 32.6745 169.447 32.9417C169.505 33.1799 169.598 33.4703 169.656 33.5807C169.708 33.6968 169.871 33.8943 170.01 34.0279C170.155 34.1557 170.369 34.2951 170.497 34.3416C170.619 34.3822 170.891 34.4171 171.1 34.4171C171.309 34.4113 171.802 34.3997 172.202 34.3822C172.602 34.3648 173.188 34.3067 173.507 34.2603C173.826 34.208 174.389 34.1267 174.754 34.0744C175.12 34.0221 175.584 33.9582 175.781 33.9234C175.984 33.8943 176.372 33.7781 176.651 33.6736C176.935 33.569 177.306 33.4471 177.48 33.4064C177.654 33.3715 177.915 33.3077 178.06 33.2728C178.205 33.2438 178.571 33.0811 178.872 32.9243C179.174 32.7675 179.464 32.6048 179.51 32.5642C179.557 32.5235 179.806 32.3841 180.061 32.2505C180.316 32.1227 180.717 31.9485 180.954 31.8613C181.192 31.78 181.546 31.6232 181.743 31.5128C181.969 31.3908 182.178 31.3153 182.317 31.3153C182.433 31.3153 182.758 31.4025 183.037 31.5128C183.315 31.6174 183.675 31.7335 183.831 31.7742C183.994 31.8091 184.411 31.902 184.759 31.9775C185.113 32.053 185.618 32.146 185.89 32.1808C186.163 32.2157 186.725 32.2854 187.137 32.3318C187.555 32.3783 188.332 32.419 188.866 32.419C189.602 32.419 189.944 32.4422 190.31 32.5293C190.577 32.5874 191.104 32.6513 191.481 32.6745C191.858 32.692 192.444 32.7558 192.781 32.8081C193.314 32.8894 193.488 32.8894 194.091 32.8314C194.718 32.7675 194.84 32.7675 195.228 32.8604C195.495 32.9185 195.947 32.965 196.388 32.9708C196.788 32.9766 197.508 33.0114 197.983 33.0463C198.465 33.0811 199.091 33.1683 199.375 33.2321C199.816 33.3425 199.978 33.3541 200.419 33.3135C200.709 33.2844 201.295 33.2728 201.724 33.2844C202.153 33.2902 202.96 33.3483 203.511 33.4122C204.062 33.4703 204.653 33.5226 204.827 33.5226C204.995 33.5226 205.314 33.5574 205.535 33.6039C205.749 33.6504 206.335 33.7142 206.828 33.7549C207.321 33.7898 208.081 33.8595 208.51 33.9059C208.939 33.9582 209.659 34.0337 210.105 34.0802C210.552 34.1325 211.375 34.1905 211.932 34.2196C212.82 34.2603 213.005 34.2835 213.411 34.4287L213.875 34.5913L215.946 34.603C217.866 34.6146 218.04 34.6204 218.382 34.7365C218.643 34.8237 218.91 34.8585 219.327 34.8643C219.646 34.8643 220.052 34.876 220.226 34.876C220.4 34.8818 220.795 34.8469 221.096 34.8004C221.398 34.754 221.815 34.7191 222.024 34.7191C222.233 34.7249 222.587 34.7482 222.807 34.7714C223.178 34.8062 223.231 34.8004 223.416 34.6727C223.567 34.5681 223.619 34.4926 223.619 34.3648C223.619 34.237 223.573 34.1731 223.422 34.0802C223.236 33.9698 223.126 33.964 221.537 33.9756C220.534 33.9814 219.71 33.9582 219.501 33.9234C219.31 33.8885 218.921 33.8246 218.631 33.7723C218.347 33.7259 217.587 33.6678 216.949 33.6387C216.311 33.6155 215.505 33.5632 215.151 33.5284C214.803 33.4935 214.42 33.4412 214.31 33.4064C214.2 33.3774 213.736 33.3018 213.278 33.2321C212.814 33.1683 212.147 33.116 211.77 33.116C211.399 33.116 210.79 33.0753 210.424 33.0288C210.059 32.9766 209.485 32.8952 209.148 32.8488C208.812 32.7965 208.185 32.7384 207.756 32.7094C207.327 32.6861 206.608 32.6106 206.161 32.5409C205.715 32.477 204.908 32.3725 204.363 32.3028C203.824 32.2389 202.844 32.1576 202.188 32.1285C201.533 32.0995 200.709 32.0704 200.35 32.0704C199.996 32.0704 199.497 32.0298 199.248 31.9833C198.998 31.931 198.418 31.8497 197.954 31.8032C197.49 31.751 196.498 31.6929 195.75 31.6638C195.002 31.6406 194.347 31.6 194.3 31.5825C194.254 31.5651 193.651 31.5361 192.966 31.5244C191.916 31.5012 191.661 31.478 191.342 31.3792C191.099 31.2979 190.739 31.2456 190.327 31.2282C189.973 31.2166 189.544 31.1759 189.376 31.1411C189.202 31.112 188.75 31.083 188.361 31.083C187.978 31.083 187.416 31.054 187.12 31.0249C186.824 30.9901 186.285 30.8913 185.925 30.7984C185.565 30.7054 185.101 30.6067 184.898 30.5893C184.695 30.566 184.4 30.5138 184.243 30.4673C184.086 30.4208 183.617 30.2059 183.193 29.9852C182.776 29.7645 182.341 29.567 182.23 29.5437C182.109 29.5205 181.958 29.5379 181.824 29.596C181.708 29.6425 181.54 29.7819 181.447 29.9039C181.355 30.0258 181.21 30.2001 181.123 30.2988C181.041 30.3918 180.815 30.5602 180.63 30.6706C180.444 30.7751 180.079 31.0075 179.818 31.1817C179.557 31.356 179.139 31.5709 178.89 31.6638C178.64 31.751 178.269 31.8904 178.06 31.9717C177.851 32.053 177.515 32.1576 177.306 32.2098C177.097 32.2679 176.802 32.3493 176.639 32.3957C176.483 32.4422 176.204 32.5177 176.03 32.5642C175.856 32.6048 175.357 32.7094 174.928 32.7907C174.499 32.872 173.925 32.9708 173.658 33.0056C173.275 33.0637 172.962 33.0637 172.127 33.0056C171.547 32.965 171.031 32.9069 170.967 32.8778C170.909 32.843 170.81 32.7326 170.752 32.6339C170.688 32.5293 170.636 32.3841 170.636 32.3028C170.636 32.2215 170.688 32.0762 170.746 31.9775C170.804 31.8788 170.949 31.7394 171.06 31.6697C171.176 31.6 171.442 31.4838 171.663 31.4083C171.877 31.3328 172.225 31.1934 172.434 31.0946C172.643 30.9959 173.153 30.7635 173.565 30.5835C173.983 30.4034 174.499 30.1943 174.719 30.1188C174.934 30.0433 175.294 29.8806 175.508 29.7528C175.723 29.6309 176.071 29.474 176.28 29.4043C176.523 29.323 176.796 29.172 177.022 28.9861C177.219 28.8293 177.544 28.6202 177.735 28.5272C177.933 28.4343 178.286 28.2078 178.524 28.0219C178.762 27.8418 179.006 27.6502 179.058 27.5979C179.11 27.5514 179.301 27.3946 179.487 27.2494C179.673 27.1042 179.957 26.8544 180.119 26.6918C180.34 26.4768 180.438 26.3316 180.485 26.1341C180.525 25.9831 180.554 25.7972 180.554 25.7159C180.554 25.6346 180.514 25.4662 180.461 25.3384C180.409 25.2106 180.287 25.0421 180.189 24.9666C180.084 24.8911 179.806 24.7401 179.568 24.6355C179.226 24.4845 179.035 24.4381 178.669 24.4148C178.356 24.4032 177.985 24.4323 177.538 24.5136C176.999 24.6123 176.755 24.6878 176.262 24.9318C175.926 25.0944 175.473 25.3209 175.247 25.4313C175.027 25.5475 174.83 25.6578 174.812 25.6811C174.795 25.7043 174.557 25.8553 174.284 26.018C173.983 26.198 173.542 26.5407 173.148 26.9125C172.794 27.2436 172.289 27.6908 172.034 27.9115C171.773 28.1265 171.466 28.4285 171.344 28.5679C171.228 28.7131 170.967 29.0094 170.764 29.2301C170.532 29.4857 170.317 29.8051 170.161 30.1246C170.027 30.3976 169.847 30.688 169.755 30.7693C169.662 30.8448 169.528 30.9204 169.459 30.9378C169.389 30.9494 169.134 31.0133 168.896 31.0772C168.658 31.1353 168.252 31.2456 167.997 31.3153C167.742 31.3792 167.232 31.5419 166.866 31.6638C166.501 31.7858 166.054 31.9136 165.88 31.9485C165.706 31.9833 165.103 32.0472 164.546 32.0995C163.989 32.1518 163.299 32.2215 163.009 32.2505C162.725 32.2854 162.342 32.326 162.162 32.3434C161.954 32.3609 161.722 32.3434 161.513 32.2795C161.327 32.2273 160.979 32.1866 160.672 32.1866C160.208 32.1866 160.127 32.1692 159.993 32.053C159.86 31.9427 159.848 31.902 159.9 31.7684C159.929 31.6813 160.098 31.5128 160.266 31.385C160.434 31.2631 160.782 31.0656 161.037 30.9552C161.292 30.8448 161.698 30.6299 161.936 30.4789C162.174 30.3337 162.394 30.2117 162.429 30.2117C162.464 30.2117 162.667 30.0723 162.876 29.9039C163.09 29.7412 163.502 29.4624 163.804 29.2882C164.1 29.1139 164.552 28.8525 164.807 28.7073C165.062 28.5563 165.492 28.2891 165.764 28.1032C166.037 27.9232 166.414 27.656 166.605 27.5166C166.797 27.3714 167.127 27.1506 167.336 27.0228C167.545 26.8951 167.835 26.6511 167.974 26.4827C168.119 26.3142 168.299 26.0819 168.38 25.9715C168.49 25.8031 168.519 25.6985 168.519 25.379C168.519 25.048 168.496 24.9724 168.374 24.8388C168.293 24.7517 168.154 24.6414 168.061 24.5949C167.968 24.5426 167.765 24.502 167.62 24.502C167.417 24.4961 167.232 24.5542 166.86 24.7343C166.594 24.8679 166.159 25.0538 165.898 25.1525C165.642 25.2571 165.329 25.4197 165.202 25.5126C165.08 25.6114 164.83 25.7798 164.651 25.8844C164.471 25.9889 164.105 26.2445 163.839 26.4536C163.572 26.6569 163.137 26.9822 162.864 27.1739C162.568 27.3772 161.861 28.0161 161.095 28.7712C160.069 29.7819 159.692 30.113 159.152 30.4731C158.787 30.7171 158.34 30.9842 158.166 31.0656C157.992 31.1469 157.633 31.2805 157.372 31.3734C157.111 31.4605 156.757 31.6174 156.589 31.7103C156.42 31.8091 156.009 31.9891 155.672 32.1169C155.336 32.2389 154.849 32.3841 154.593 32.4364C154.332 32.4887 153.805 32.6513 153.416 32.7907C153.033 32.9359 152.552 33.0811 152.355 33.116C152.152 33.145 151.769 33.2496 151.502 33.3483C151.177 33.4703 150.771 33.5574 150.284 33.6155C149.721 33.6852 149.507 33.691 149.339 33.6445C149.182 33.5923 149.107 33.5342 149.083 33.4354C149.066 33.3541 149.066 33.2205 149.083 33.1276C149.107 33.0405 149.298 32.8023 149.518 32.5932C149.733 32.3841 149.953 32.1401 150.011 32.0472C150.069 31.9543 150.226 31.7626 150.354 31.6232C150.481 31.4838 150.783 31.2282 151.032 31.0598C151.276 30.8855 151.514 30.7113 151.56 30.6648C151.606 30.6183 151.798 30.4789 151.989 30.3511C152.181 30.2233 152.442 30.0491 152.569 29.9678C152.697 29.8864 152.906 29.7587 153.033 29.6889C153.161 29.6134 153.555 29.3637 153.903 29.1313C154.257 28.9048 154.698 28.6202 154.889 28.504C155.081 28.3878 155.446 28.1962 155.701 28.0684C155.956 27.9464 156.258 27.7605 156.368 27.6618C156.478 27.5572 156.739 27.3946 156.948 27.29C157.157 27.1913 157.47 26.988 157.644 26.8428C157.818 26.6976 158.073 26.5059 158.207 26.4188C158.387 26.3084 158.468 26.2038 158.52 26.0354C158.572 25.867 158.572 25.7624 158.52 25.6056C158.479 25.4952 158.381 25.3558 158.3 25.3035C158.189 25.228 158.068 25.2106 157.836 25.228C157.58 25.2512 157.459 25.3035 157.192 25.4952C157.012 25.6288 156.664 25.8379 156.42 25.9657C156.177 26.0877 155.875 26.2677 155.748 26.3607C155.62 26.4478 155.284 26.6279 154.999 26.7498C154.715 26.8776 154.332 27.0925 154.153 27.2261C153.967 27.3597 153.735 27.505 153.631 27.5514C153.526 27.5921 153.259 27.7199 153.033 27.836C152.813 27.9522 152.471 28.1265 152.279 28.2252C152.088 28.324 151.369 28.6783 150.678 29.0152C149.994 29.3521 149.408 29.6309 149.379 29.6309C149.35 29.6309 149.054 29.7645 148.718 29.9213C148.382 30.0839 147.935 30.3047 147.726 30.415C147.517 30.5196 146.972 30.7984 146.508 31.0249C146.044 31.2572 145.516 31.4896 145.325 31.5535C145.139 31.6116 144.96 31.6638 144.936 31.6638C144.907 31.6638 144.733 31.7394 144.548 31.8265C144.368 31.9136 143.956 32.1227 143.637 32.2854C143.318 32.4538 142.982 32.6164 142.883 32.6513C142.79 32.692 142.5 32.7558 142.245 32.8023C141.99 32.8488 141.671 32.8836 141.538 32.8836C141.364 32.8836 141.253 32.8488 141.172 32.7675C141.108 32.7036 141.056 32.6164 141.056 32.5758C141.056 32.5409 141.108 32.3957 141.172 32.2563C141.236 32.1169 141.41 31.8439 141.561 31.6464C141.706 31.4489 141.909 31.1817 142.007 31.054C142.106 30.9262 142.483 30.4847 142.848 30.0665C143.214 29.6541 143.892 28.9164 144.356 28.4401C144.82 27.958 145.4 27.3307 145.644 27.0461C145.882 26.7557 146.236 26.3897 146.421 26.2329C146.607 26.0702 146.966 25.7334 147.227 25.4778C147.488 25.2222 147.831 24.8679 147.993 24.6936C148.15 24.5194 148.556 24.1302 148.886 23.834C149.223 23.5377 149.588 23.2415 149.698 23.1776C149.808 23.1079 149.994 22.9685 150.104 22.8698C150.22 22.771 150.4 22.6258 150.51 22.5445C150.62 22.4632 150.794 22.3238 150.899 22.2308C151.009 22.1379 151.137 21.9869 151.183 21.8997C151.224 21.8126 151.264 21.65 151.264 21.5454C151.264 21.4409 151.212 21.2666 151.148 21.1621C151.084 21.0575 150.934 20.9297 150.823 20.8832C150.69 20.8252 150.545 20.8077 150.429 20.8368C150.33 20.8542 150.174 20.9297 150.075 20.9994C149.982 21.0633 149.756 21.255 149.576 21.4176C149.397 21.5803 149.072 21.8126 148.851 21.9346C148.631 22.0566 148.295 22.2599 148.109 22.3818C147.923 22.5096 147.686 22.649 147.587 22.7013C147.488 22.7536 147.396 22.8117 147.378 22.8349C147.361 22.8523 147.233 22.9511 147.088 23.0498C146.943 23.1486 146.763 23.2473 146.688 23.2705C146.607 23.2938 146.247 23.4797 145.882 23.683C145.516 23.8921 145.087 24.1709 144.919 24.3103C144.757 24.4497 144.403 24.682 144.13 24.8214C143.858 24.9608 143.475 25.1815 143.289 25.3093C143.098 25.4371 142.761 25.6462 142.535 25.7682C142.315 25.8902 141.816 26.1806 141.433 26.4071C141.05 26.6395 140.412 27.0112 140.012 27.2378C139.612 27.4585 138.875 27.8941 138.371 28.1962C137.86 28.504 137.269 28.8235 137.054 28.9048C136.834 28.9919 136.544 29.1371 136.405 29.2301C136.265 29.3288 135.946 29.5437 135.691 29.7122C135.436 29.8864 135.007 30.1478 134.734 30.2988C134.462 30.4557 133.899 30.81 133.476 31.0888C133.052 31.3734 132.577 31.6697 132.414 31.751C132.252 31.8323 131.973 31.9949 131.799 32.1053C131.62 32.2215 131.272 32.4073 131.028 32.5177C130.784 32.6281 130.431 32.8023 130.239 32.9011C130.048 32.994 129.746 33.1683 129.572 33.2844C129.398 33.4064 129.021 33.6271 128.731 33.7781C128.447 33.935 128.064 34.1615 127.89 34.2777C127.71 34.3938 127.357 34.603 127.101 34.7365C126.846 34.8643 126.562 34.9747 126.481 34.9747C126.388 34.9747 126.324 34.9398 126.324 34.8992C126.324 34.8527 126.4 34.7133 126.492 34.5913C126.585 34.4694 126.846 34.1789 127.072 33.9582C127.293 33.7317 127.751 33.2902 128.093 32.9708C128.43 32.6513 128.928 32.1808 129.189 31.9252C129.456 31.6697 130.141 31.0133 130.703 30.4731C131.266 29.9271 132.176 29.0384 132.722 28.4924C133.273 27.9464 134.154 27.1042 134.682 26.6221C135.21 26.1458 135.871 25.5068 136.144 25.2106C136.422 24.9085 136.799 24.56 136.979 24.4381C137.164 24.3103 137.449 24.0547 137.605 23.8688C137.768 23.683 138.017 23.439 138.168 23.3286C138.313 23.2125 138.643 22.893 138.893 22.6142C139.142 22.3354 139.542 21.8417 139.774 21.5106C140.006 21.1853 140.273 20.7438 140.366 20.5405C140.482 20.3024 140.546 20.0759 140.546 19.9074C140.546 19.768 140.499 19.5531 140.441 19.4369C140.389 19.3208 140.279 19.1814 140.204 19.1349C140.122 19.0826 139.954 19.042 139.821 19.042C139.653 19.042 139.455 19.1058 139.177 19.2511C138.957 19.373 138.707 19.466 138.626 19.466C138.545 19.466 138.371 19.495 138.243 19.5299C138.116 19.5647 137.802 19.6925 137.547 19.8145C137.292 19.9365 136.886 20.1049 136.648 20.1862C136.41 20.2734 135.993 20.4418 135.72 20.5638C135.448 20.6858 135.134 20.8077 135.024 20.831C134.914 20.8542 134.653 20.9646 134.444 21.0749C134.235 21.1853 133.899 21.3363 133.69 21.4176C133.481 21.499 132.872 21.8126 132.327 22.1205C131.788 22.4283 131.225 22.7478 131.08 22.8349C130.935 22.922 130.715 23.0498 130.587 23.1137C130.46 23.1834 130.088 23.3519 129.758 23.4971C129.427 23.6423 129.062 23.8282 128.946 23.9211C128.83 24.0082 128.522 24.2115 128.267 24.3684C128.012 24.5252 127.612 24.7517 127.374 24.8795C127.136 25.0073 126.823 25.2106 126.678 25.3268C126.533 25.4487 126.284 25.623 126.121 25.7101C125.965 25.8031 125.686 25.9889 125.506 26.1283C125.327 26.2677 124.95 26.5001 124.671 26.6453C124.387 26.7847 124.138 26.9009 124.109 26.9009C124.085 26.9009 124.062 26.8776 124.062 26.8544C124.062 26.8254 124.12 26.7382 124.184 26.6627C124.254 26.5872 124.399 26.3374 124.503 26.1051C124.619 25.8611 124.88 25.4778 125.129 25.1815C125.367 24.9027 125.634 24.5426 125.733 24.38C125.825 24.2173 126.017 23.8921 126.156 23.6597C126.295 23.4274 126.481 23.1021 126.562 22.9395C126.649 22.7768 126.742 22.469 126.777 22.2599C126.811 22.0508 126.858 21.557 126.881 21.1679C126.916 20.5173 126.91 20.4302 126.788 20.0933C126.719 19.89 126.556 19.5996 126.434 19.4427C126.307 19.2859 126.063 19.0303 125.883 18.8735C125.704 18.7167 125.46 18.5424 125.338 18.4785C125.216 18.4146 124.944 18.2985 124.729 18.2171C124.515 18.1358 124.265 18.0719 124.172 18.0719C124.08 18.0719 123.801 18.1184 123.552 18.1823C123.308 18.2404 122.804 18.3333 122.438 18.3914C121.968 18.4611 121.603 18.554 121.197 18.7167C120.814 18.8735 120.553 18.9432 120.414 18.9316C120.269 18.92 120.199 18.8851 120.188 18.8096C120.176 18.7515 120.182 18.6412 120.199 18.5657C120.217 18.4959 120.385 18.2636 120.565 18.0603C120.75 17.8512 121.11 17.3981 121.365 17.0554C121.69 16.614 121.87 16.2945 121.98 15.9867C122.067 15.7427 122.229 15.3594 122.345 15.1328C122.456 14.9063 122.601 14.4881 122.664 14.2035C122.728 13.9188 122.821 13.5703 122.873 13.4309C122.92 13.2915 122.96 13.0998 122.96 13.0011C122.96 12.9024 122.92 12.5887 122.867 12.2983C122.815 12.0078 122.711 11.5606 122.635 11.305C122.554 11.0494 122.398 10.6487 122.293 10.4163C122.154 10.1259 121.986 9.88773 121.765 9.66701C121.586 9.49276 121.307 9.28946 121.139 9.21395C120.977 9.13844 120.675 9.01646 120.466 8.94676C120.257 8.87706 119.892 8.72603 119.654 8.61567C119.266 8.43561 119.126 8.40657 118.349 8.33686C117.874 8.29039 117.282 8.23231 117.044 8.20327C116.806 8.16842 115.942 8.1568 115.13 8.17422C114.318 8.19165 113.367 8.24393 113.013 8.29039C112.665 8.33105 112.155 8.38333 111.882 8.40657C111.61 8.42399 111.099 8.48788 110.745 8.55178C110.386 8.60986 109.916 8.68538 109.701 8.72023C109.481 8.75508 108.831 8.80735 108.257 8.8364C107.683 8.86544 106.877 8.94095 106.459 9.00484C106.047 9.06874 105.421 9.14425 105.079 9.1791C104.731 9.21395 104.429 9.25461 104.4 9.27203C104.371 9.28946 104.093 9.33012 103.774 9.35916C103.461 9.3882 103.008 9.46371 102.77 9.52761C102.533 9.5915 101.924 9.69605 101.413 9.76575C100.903 9.82965 100.265 9.91678 99.9922 9.96325C99.7196 10.0097 98.9888 10.1433 98.3682 10.2595C97.7476 10.3756 97.0052 10.5209 96.7152 10.5789C96.431 10.6312 96.025 10.7184 95.8162 10.7706C95.6074 10.8171 95.2246 10.8868 94.9578 10.9216C94.6968 10.9565 94.3546 11.0378 94.2038 11.1017C94.053 11.1714 93.734 11.276 93.4962 11.3399C93.2584 11.4038 92.864 11.5083 92.6262 11.5664C92.3884 11.6245 91.8374 11.7407 91.4082 11.8278C90.979 11.9149 90.3758 12.0717 90.0742 12.1821C89.7726 12.2867 89.3666 12.4202 89.1752 12.4667C88.9838 12.519 88.369 12.6758 87.8122 12.821C87.2554 12.9604 86.4202 13.2102 85.9562 13.3728C85.4922 13.5355 84.7904 13.7736 84.3902 13.9014C83.99 14.0292 83.4042 14.2267 83.0852 14.3371C82.7662 14.4474 82.4008 14.581 82.2732 14.6275C82.1456 14.6739 81.844 14.7669 81.6004 14.825C81.3568 14.8889 80.742 15.1096 80.2374 15.3187C79.7328 15.5278 79.1064 15.7659 78.8512 15.8473C78.596 15.9228 78.2074 16.0796 77.9812 16.1842C77.7608 16.2887 77.3258 16.4455 77.0242 16.5327C76.7226 16.6198 76.3456 16.7476 76.1832 16.8173C76.0266 16.887 75.7366 16.9974 75.551 17.0554C75.3596 17.1135 75.0058 17.2587 74.768 17.3807C74.5244 17.4969 73.9444 17.7292 73.4746 17.8861C73.0106 18.0487 72.2914 18.3333 71.8796 18.525C71.4736 18.7167 70.998 18.9025 70.8356 18.949C70.6674 18.9897 70.5108 19.0013 70.4876 18.9781C70.4644 18.9548 70.5166 18.798 70.6036 18.6354C70.6906 18.4669 71.0502 17.9906 71.404 17.5782C71.7578 17.16 72.187 16.614 72.3552 16.3584C72.5234 16.1028 72.8018 15.6962 72.9642 15.4581C73.1266 15.2199 73.521 14.4997 73.84 13.8608C74.1532 13.2218 74.449 12.5771 74.4954 12.4261C74.5418 12.275 74.6114 11.7871 74.652 11.3457C74.71 10.6951 74.71 10.4628 74.652 10.1665C74.6056 9.94582 74.4258 9.49276 74.2054 9.03969C73.9386 8.49369 73.7008 8.11614 73.347 7.67469C73.0802 7.3378 72.622 6.83246 72.3204 6.54784C71.926 6.17029 71.6824 5.98442 71.404 5.86244C71.1952 5.7695 70.969 5.66495 70.9052 5.6301C70.8414 5.59525 70.5398 5.43842 70.2382 5.2874C69.9366 5.13637 69.5306 4.97374 69.3392 4.92727C69.1478 4.87499 68.8346 4.81691 68.6432 4.79367C68.4518 4.77044 68.0342 4.66588 67.7152 4.55552C67.17 4.36384 67.0656 4.35223 66.0622 4.30576C65.4706 4.27671 64.7572 4.23605 64.4672 4.21282C64.183 4.1954 63.9278 4.1954 63.9104 4.21282ZM65.4822 5.32225C65.9752 5.36871 66.6538 5.45584 66.9902 5.51973C67.3266 5.57782 68.011 5.73465 68.5156 5.86824C69.0202 5.99603 69.6988 6.21675 70.0236 6.35616C70.3484 6.49556 70.7892 6.7221 70.9922 6.8615C71.201 7.0009 71.578 7.32618 71.8332 7.58176C72.0942 7.84314 72.448 8.27297 72.622 8.54597C72.8018 8.81897 73.0454 9.27203 73.1614 9.56246C73.2832 9.84708 73.405 10.1898 73.4398 10.3176C73.4688 10.4512 73.4804 10.8113 73.4572 11.1598C73.434 11.4967 73.3818 11.9439 73.3412 12.1589C73.2948 12.397 73.1498 12.7571 72.9584 13.1173C72.7902 13.4309 72.5234 13.9363 72.3726 14.2383C72.216 14.5404 72.0362 14.8831 71.9724 14.9934C71.9028 15.1038 71.752 15.3419 71.6418 15.5162C71.5316 15.6904 71.201 16.1493 70.9168 16.5327C70.6268 16.916 70.0816 17.6072 69.6988 18.0719C69.316 18.5366 68.9158 18.9897 68.8114 19.0884C68.7128 19.1814 68.5098 19.4079 68.3706 19.5821C68.2256 19.7564 67.8544 20.163 67.5354 20.4883C67.1874 20.8368 66.764 21.2027 66.4682 21.3944C66.1956 21.5687 65.7258 21.8533 65.4242 22.0217C65.1226 22.196 64.7398 22.4225 64.5716 22.5271C64.4034 22.6316 64.2526 22.7187 64.2352 22.7187C64.2178 22.7187 64.067 22.8291 63.8988 22.9569C63.7306 23.0905 63.4638 23.2822 63.3072 23.3867C63.1448 23.4855 62.8606 23.712 62.6692 23.8862C62.4778 24.0605 62.1936 24.2987 62.0312 24.4148C61.8746 24.531 61.5208 24.8563 61.2482 25.1351C60.9756 25.4197 60.674 25.7275 60.5812 25.8263C60.4826 25.9192 60.326 26.1051 60.2332 26.2271C60.1346 26.3491 59.9896 26.5756 59.9026 26.7208C59.8156 26.866 59.6706 27.1448 59.5778 27.3365C59.4792 27.5282 59.3632 27.778 59.3168 27.8941C59.2704 28.0103 59.0964 28.2601 58.9398 28.4517C58.7774 28.6434 58.47 28.9338 58.2496 29.0965C58.035 29.2533 57.687 29.5495 57.484 29.747C57.2752 29.9445 56.962 30.2059 56.788 30.3279C56.6082 30.4499 56.3994 30.6183 56.3182 30.7054C56.237 30.7926 56.0572 30.9436 55.9122 31.0423C55.7672 31.1411 55.4714 31.3676 55.251 31.5419C55.0306 31.7219 54.6362 32.0646 54.381 32.3028C54.12 32.5467 53.7662 32.8546 53.5922 32.994C53.4182 33.1276 53.1166 33.3715 52.9252 33.5342C52.7338 33.6968 52.3394 34.0221 52.0436 34.2544C51.7478 34.4926 51.4404 34.7772 51.3534 34.8876C51.2722 34.9979 51.0286 35.207 50.814 35.3464C50.5936 35.4858 50.3036 35.7066 50.1528 35.8344C50.0078 35.9621 49.8222 36.0783 49.7352 36.1015C49.6366 36.1248 49.5264 36.1074 49.4162 36.0435C49.3234 35.9854 49.2074 35.8402 49.1494 35.7182C49.0856 35.5672 48.9638 35.4394 48.8072 35.3464C48.6158 35.2361 48.4824 35.207 48.1924 35.207C47.9894 35.207 47.6936 35.2419 47.5312 35.2884C47.3746 35.3348 47.044 35.451 46.8062 35.5439C46.5684 35.6427 46.2146 35.7821 46.0232 35.8518C45.7564 35.9505 45.5882 36.0725 45.2982 36.3629C45.0894 36.5778 44.782 36.9496 44.6196 37.1994C44.4514 37.4433 44.26 37.757 44.1904 37.8906C44.0802 38.1113 44.0686 38.2042 44.0976 38.698C44.1208 39.151 44.1614 39.3311 44.3064 39.668C44.405 39.8945 44.4862 40.121 44.4862 40.1733C44.4862 40.2256 44.4572 40.3185 44.4282 40.3824C44.3934 40.4405 44.1614 40.638 43.9062 40.8123C43.6568 40.9923 43.3262 41.2479 43.1696 41.3873C43.0188 41.5267 42.81 41.6893 42.7056 41.7532C42.607 41.8113 42.346 41.9972 42.1256 42.1656C41.911 42.3341 41.5224 42.6129 41.2672 42.7871C41.012 42.9614 40.49 43.2925 40.1072 43.519C39.7244 43.7514 39.2314 44.0476 39.0052 44.187C38.7848 44.3206 38.4426 44.5065 38.2512 44.6052C38.0598 44.6981 37.8104 44.8027 37.7002 44.8375C37.59 44.8724 37.3174 44.9537 37.0912 45.0292C36.8708 45.0989 36.662 45.1744 36.6272 45.1977C36.5982 45.2267 36.285 45.3429 35.9312 45.4649L35.2932 45.6798L33.9592 45.7262C33.1646 45.7495 32.5266 45.7495 32.3758 45.7146C32.2366 45.6856 31.9234 45.5462 31.6798 45.4068C31.4362 45.2674 31.181 45.0815 31.1172 45.0002C31.0244 44.8724 30.9954 44.733 30.9838 44.338C30.9664 43.885 30.978 43.8094 31.1172 43.5713C31.1984 43.4261 31.3086 43.217 31.3608 43.1066C31.413 42.9963 31.471 42.7 31.4942 42.4561C31.5232 42.1075 31.5696 41.9507 31.6914 41.7648C31.7784 41.6371 32.0278 41.335 32.2482 41.0969C32.4686 40.8587 32.7296 40.5102 32.8282 40.3243C32.9326 40.1327 33.1356 39.848 33.2864 39.6912C33.4314 39.5344 33.7388 39.2904 33.9592 39.1568C34.1854 39.0232 34.4464 38.8432 34.5508 38.756C34.6494 38.6747 34.8582 38.5295 35.0148 38.4308C35.1656 38.3378 35.4788 38.1287 35.6992 37.9719C35.9254 37.8092 36.2502 37.5595 36.4242 37.4085C36.604 37.2574 36.9694 36.9902 37.2362 36.8102C37.5088 36.6301 37.8974 36.3571 38.1004 36.1945C38.3034 36.0377 38.5992 35.7937 38.7616 35.6601C38.9182 35.5207 39.2372 35.2651 39.4692 35.0909C39.6954 34.9166 40.0376 34.6552 40.2232 34.51C40.4146 34.3648 40.722 34.1034 40.9192 33.9234C41.1106 33.7433 41.4006 33.511 41.5572 33.4122C41.7196 33.3135 41.969 33.0695 42.1256 32.8662C42.2822 32.6629 42.4388 32.3725 42.491 32.1982C42.578 31.9078 42.578 31.8671 42.4852 31.6232C42.404 31.4141 42.317 31.3153 42.0328 31.1353C41.8414 31.0075 41.5804 30.8797 41.447 30.8448C41.3194 30.81 41.1106 30.7984 40.983 30.8158C40.8554 30.839 40.5596 30.932 40.3276 31.0249C40.0956 31.1178 39.7302 31.327 39.5156 31.4896C39.3068 31.6464 39.1038 31.78 39.069 31.78C39.0342 31.78 38.9008 31.8323 38.7732 31.902C38.6456 31.9717 38.4368 32.1227 38.3092 32.2389C38.1816 32.3609 38.0134 32.5003 37.938 32.5525C37.8568 32.6048 37.5262 32.8894 37.1898 33.1857C36.8592 33.4819 36.256 34.086 35.85 34.5332C35.4498 34.9747 34.9684 35.5091 34.777 35.724C34.5914 35.9331 34.3536 36.2003 34.255 36.3107C34.1564 36.421 33.9766 36.6475 33.8606 36.8102C33.7446 36.9786 33.6054 37.1994 33.5474 37.3039C33.4952 37.4143 33.3212 37.6292 33.1704 37.7918C33.0196 37.9487 32.8166 38.1868 32.7238 38.3204C32.6252 38.454 32.4048 38.6863 32.225 38.8374C32.0452 38.9942 31.7378 39.2091 31.5406 39.3195C31.3376 39.424 30.7692 39.7261 30.2762 39.9874C29.7832 40.243 29.0756 40.6031 28.7102 40.7832C28.3448 40.9691 27.6778 41.2944 27.2312 41.5093C26.7846 41.7242 26.1698 42.003 25.8682 42.1308C25.5666 42.2586 25.0852 42.4735 24.7952 42.6129C24.511 42.7581 24.0934 42.9382 23.8672 43.0195C23.6468 43.1066 23.3046 43.2344 23.1132 43.3099C22.9218 43.3854 22.568 43.5016 22.3302 43.5713C22.0924 43.6468 21.698 43.792 21.4544 43.8966C21.2108 44.0069 20.7004 44.1754 20.3234 44.2741C19.9406 44.3729 19.5578 44.4774 19.4592 44.5007C19.3664 44.5297 19.1054 44.5994 18.8792 44.6633C18.6588 44.7272 18.2934 44.8085 18.0672 44.8434C17.8468 44.8782 17.4118 44.977 17.1102 45.0641L16.5592 45.2209L14.8018 45.2151C13.3228 45.2035 12.9922 45.1861 12.7428 45.1047C12.5746 45.0525 12.418 44.9886 12.3832 44.9653C12.3542 44.9421 12.157 44.8666 11.9482 44.7911C11.7394 44.7156 11.4784 44.6168 11.3682 44.5704C11.258 44.5239 11.0492 44.431 10.91 44.3671C10.7708 44.3032 10.475 44.0999 10.243 43.9198C10.0168 43.7397 9.76743 43.4784 9.68623 43.3448C9.60503 43.2112 9.47743 43.0021 9.40203 42.8859C9.32663 42.7697 9.15263 42.4328 9.01923 42.1482C8.88583 41.8578 8.73503 41.4918 8.68283 41.335C8.63063 41.1724 8.57263 40.9284 8.55523 40.7774C8.53203 40.6322 8.54363 40.0862 8.57843 39.5576C8.62483 38.8664 8.68863 38.4191 8.81043 37.937C8.89743 37.5711 9.00763 37.1122 9.05403 36.9205C9.09463 36.7289 9.21063 36.3629 9.30923 36.1074C9.41363 35.8518 9.52963 35.4975 9.57023 35.3232C9.61083 35.149 9.68623 34.8876 9.73263 34.7424C9.78483 34.5971 9.94143 34.2719 10.0864 34.0163C10.2256 33.7607 10.4866 33.2728 10.6548 32.9243C10.823 32.5816 11.0144 32.2389 11.0782 32.1692C11.142 32.0937 11.3218 31.8788 11.4726 31.6813C11.6234 31.4896 11.9482 31.0772 12.1918 30.7751C12.4412 30.4673 12.6674 30.2001 12.7022 30.1827C12.737 30.1652 12.9052 29.9445 13.085 29.7006C13.2648 29.4566 13.4794 29.1778 13.5664 29.0907C13.6476 29.0035 13.8332 28.7538 13.9782 28.5389C14.1232 28.324 14.39 28.0277 14.5756 27.8825C14.7612 27.7315 15.0628 27.412 15.2484 27.1681C15.434 26.9241 15.8226 26.5117 16.101 26.2503C16.3852 25.9947 16.71 25.7159 16.8202 25.6288C16.9304 25.5475 17.261 25.2571 17.5452 24.9841C17.8352 24.7111 18.276 24.3277 18.5312 24.1244C18.7864 23.9211 19.146 23.6365 19.3316 23.4913C19.5172 23.3402 19.7144 23.1602 19.7608 23.0847C19.813 23.0092 20.0276 22.8233 20.2364 22.6723C20.4452 22.5271 20.7874 22.2482 21.002 22.0508C21.2108 21.8533 21.4718 21.6616 21.582 21.6151C21.6864 21.5745 21.8836 21.4583 22.0112 21.3595C22.1388 21.2666 22.336 21.104 22.4462 21.0052C22.5564 20.9007 22.7942 20.7322 22.9682 20.6277C23.1422 20.5231 23.496 20.285 23.7512 20.0991C24.0064 19.9132 24.4414 19.5938 24.7198 19.3963C24.9982 19.193 25.3868 18.9432 25.5782 18.8328C25.7696 18.7225 25.9726 18.5947 26.0248 18.5424C26.0828 18.4901 26.251 18.3507 26.396 18.2346C26.541 18.1126 26.7614 17.9732 26.889 17.9209C27.0108 17.8686 27.3646 17.6653 27.6662 17.4678C27.9678 17.2645 28.4376 16.9915 28.7102 16.8579C28.9828 16.7185 29.2438 16.5733 29.2902 16.5327C29.3366 16.492 29.5686 16.3584 29.8064 16.2364C30.0442 16.1203 30.3864 15.917 30.5604 15.7892C30.7402 15.6672 31.123 15.4523 31.4072 15.3129C31.6972 15.1735 32.0742 14.9818 32.2482 14.8889C32.4222 14.7901 32.7644 14.6159 33.0022 14.4997C33.24 14.3835 33.4778 14.2499 33.5242 14.2093C33.5706 14.1686 33.8606 14.0002 34.1622 13.8317C34.4638 13.6633 35.2874 13.2334 35.9892 12.8791C36.691 12.519 37.5552 12.1182 37.9032 11.9788C38.257 11.8394 38.7384 11.6129 38.982 11.4735C39.2256 11.3341 39.4402 11.2179 39.4576 11.2179C39.4808 11.2179 39.997 11.0204 40.6118 10.7822C41.2266 10.5383 41.9052 10.2653 42.114 10.1724C42.3228 10.0852 42.6592 9.97486 42.868 9.94001C43.071 9.89935 43.3842 9.82965 43.5582 9.78318C43.7322 9.73671 43.9932 9.64378 44.1382 9.57988C44.2832 9.51599 44.4398 9.42886 44.4862 9.3882C44.5326 9.34754 44.811 9.20814 45.0952 9.08035C45.3852 8.95837 45.8144 8.80735 46.0522 8.75508C46.29 8.69699 46.8004 8.54016 47.1832 8.40076C47.566 8.26135 48.1286 8.06967 48.4302 7.97673C48.7318 7.87799 49.161 7.76763 49.3814 7.73278C49.6018 7.69793 49.915 7.61661 50.0774 7.54691C50.2398 7.48301 50.5124 7.37846 50.6864 7.32037C50.8604 7.26229 51.0634 7.21001 51.1388 7.21001C51.22 7.21001 51.4694 7.1345 51.6956 7.04156C51.9276 6.95444 52.2988 6.84407 52.5192 6.80922C52.7454 6.76857 53.1224 6.67563 53.3602 6.60012C53.598 6.52461 54.0562 6.42006 54.3752 6.36778C54.6942 6.32131 55.1118 6.23999 55.3032 6.19352C55.4946 6.15286 55.9818 6.03088 56.382 5.93795C56.7822 5.8392 57.3216 5.73465 57.571 5.70561C57.8204 5.67076 58.5396 5.61848 59.1602 5.58944C59.7808 5.55458 60.5522 5.4965 60.8712 5.46746C61.1902 5.43261 61.9964 5.38033 62.6634 5.35129C63.3304 5.31644 63.893 5.28159 63.9046 5.26416C63.922 5.24673 64.0786 5.23512 64.2584 5.23512C64.4382 5.23512 64.9892 5.27578 65.4822 5.32225ZM115.177 22.3121C115.148 22.4109 114.933 22.6897 114.707 22.9337C114.475 23.1776 114.028 23.5958 113.709 23.8688C113.39 24.1418 113.002 24.502 112.839 24.6646C112.683 24.8272 112.456 25.0654 112.346 25.1932C112.236 25.3151 111.882 25.6637 111.563 25.9657C111.244 26.2677 110.676 26.837 110.299 27.2378C109.922 27.6385 109.516 28.0393 109.4 28.1323C109.284 28.2252 108.93 28.5505 108.611 28.8583C108.298 29.1604 107.886 29.5089 107.695 29.6309C107.509 29.7528 107.242 29.9678 107.109 30.1014C106.975 30.235 106.732 30.4324 106.564 30.537C106.401 30.6474 106.111 30.8739 105.926 31.0423C105.74 31.2166 105.38 31.5012 105.125 31.6813C104.87 31.8613 104.545 32.0995 104.4 32.2157C104.255 32.326 104.012 32.5061 103.849 32.6106C103.693 32.721 103.455 32.8778 103.327 32.9591C103.2 33.0463 102.863 33.2844 102.573 33.4935C102.289 33.6968 101.871 33.9756 101.645 34.1092C101.425 34.2428 101.059 34.4868 100.833 34.6552C100.613 34.8237 100.334 35.0037 100.224 35.0618C100.114 35.1199 99.9284 35.2361 99.8182 35.3174C99.708 35.3987 99.4992 35.5614 99.3542 35.6833C99.2092 35.7995 98.7684 36.0667 98.3682 36.27C97.968 36.4733 97.4634 36.7114 97.2372 36.8044C97.0168 36.8915 96.7036 37.0251 96.5528 37.1064C96.3962 37.1819 96.1526 37.333 96.0018 37.4375C95.851 37.5421 95.474 37.7628 95.155 37.9312C94.749 38.1461 94.5344 38.2275 94.401 38.2158C94.2502 38.2042 94.2154 38.1694 94.2038 38.0358C94.1922 37.9312 94.2386 37.7918 94.3256 37.6582C94.4068 37.5362 94.6446 37.2458 94.8534 37.0077C95.0622 36.7695 95.4682 36.27 95.7524 35.8982C96.0424 35.5265 96.344 35.1606 96.4368 35.0909C96.5238 35.0212 96.8254 34.7482 97.1096 34.481C97.388 34.2138 97.8056 33.842 98.0376 33.662C98.2638 33.4761 98.7046 33.0927 99.0062 32.7965C99.3078 32.5061 99.708 32.1634 99.8936 32.0414C100.079 31.9194 100.334 31.6871 100.456 31.5244C100.572 31.356 100.764 31.1411 100.88 31.0423C100.996 30.9436 101.251 30.7635 101.454 30.6474C101.657 30.5312 102.016 30.2408 102.254 30.0084C102.498 29.7761 102.84 29.5089 103.037 29.4101C103.229 29.3114 103.519 29.1139 103.675 28.9687C103.838 28.8177 104.104 28.6202 104.273 28.5272C104.441 28.4285 104.777 28.1671 105.015 27.9464C105.253 27.7257 105.636 27.4352 105.868 27.3017C106.1 27.1681 106.465 26.9415 106.68 26.7963C106.894 26.6569 107.236 26.471 107.434 26.3955C107.631 26.3142 107.886 26.1806 107.996 26.0993C108.106 26.018 108.373 25.7972 108.582 25.6114C108.872 25.3558 109.058 25.2454 109.342 25.1583C109.545 25.0944 109.852 24.9376 110.026 24.8098C110.2 24.6762 110.612 24.4439 110.943 24.287C111.267 24.1302 111.685 23.9095 111.871 23.7991C112.056 23.6888 112.416 23.4855 112.671 23.3519C112.92 23.2183 113.506 22.9162 113.964 22.6781C114.423 22.4457 114.852 22.2541 114.91 22.2541C114.968 22.2541 115.014 22.225 115.014 22.196C115.014 22.1611 115.066 22.1379 115.124 22.1379C115.229 22.1379 115.235 22.1553 115.177 22.3121ZM179.081 25.6288C179.127 25.6637 179.162 25.7682 179.162 25.8553C179.162 25.9599 179.081 26.1109 178.953 26.2677C178.837 26.4071 178.594 26.6279 178.414 26.7615C178.234 26.8892 177.851 27.1506 177.567 27.3365C177.277 27.5224 176.952 27.7489 176.842 27.836C176.732 27.9232 176.483 28.0742 176.291 28.1671C176.1 28.2659 175.682 28.4634 175.363 28.6144C175.044 28.7596 174.511 29.0094 174.174 29.1662C173.838 29.323 173.264 29.5844 172.898 29.7528C172.533 29.9155 172.162 30.0607 172.08 30.0781C171.993 30.0955 171.906 30.0723 171.86 30.02C171.802 29.9445 171.808 29.8981 171.872 29.7645C171.918 29.6773 172.15 29.416 172.388 29.1952C172.626 28.9687 173.113 28.5505 173.472 28.2659C173.838 27.9754 174.238 27.6385 174.371 27.5166C174.499 27.3888 174.783 27.1739 175.004 27.0345C175.218 26.8892 175.572 26.6976 175.787 26.5988C176.001 26.5001 176.372 26.3026 176.61 26.169C176.923 25.9889 177.266 25.8611 177.828 25.7159C178.281 25.594 178.692 25.5184 178.803 25.5359C178.913 25.5475 179.035 25.5881 179.081 25.6288ZM124.103 26.9938C124.085 27.0112 124.033 27.017 123.993 26.9996C123.946 26.9822 123.964 26.9648 124.027 26.9648C124.091 26.959 124.126 26.9764 124.103 26.9938ZM59.5024 29.991C59.5604 30.1304 59.6242 30.3163 59.6474 30.4092C59.6706 30.5021 59.7634 30.688 59.8562 30.8216C59.9432 30.9494 60.3144 31.3618 60.6798 31.7277C61.0394 32.0995 61.4918 32.5119 61.6832 32.6397C61.8746 32.7733 62.24 33.0521 62.4952 33.267C62.7504 33.4761 63.0404 33.6852 63.1332 33.7375C63.2318 33.7898 63.4928 33.9698 63.719 34.1441C64.0206 34.3706 64.2584 34.4926 64.589 34.5971C64.8616 34.6843 65.3082 34.8992 65.6852 35.1257C66.039 35.3348 66.4682 35.5788 66.6422 35.6659C66.8162 35.7588 67.1062 35.875 67.2802 35.9331C67.4542 35.9912 67.6688 36.0725 67.75 36.1132C67.837 36.1538 67.9182 36.2351 67.9414 36.2874C67.9588 36.3397 67.924 36.4559 67.8544 36.5546C67.7848 36.6475 67.5992 36.7811 67.431 36.8567C67.2686 36.9264 67.0598 37.0077 66.9612 37.0309C66.8684 37.0541 66.5784 37.211 66.3232 37.3794C66.068 37.5479 65.7548 37.7512 65.6272 37.8267C65.4996 37.8964 64.8732 38.3088 64.2352 38.7328C63.5972 39.1568 62.8954 39.6331 62.6692 39.79C62.4488 39.941 61.8978 40.2721 61.4512 40.5218C61.0046 40.7658 60.5522 41.033 60.4478 41.1143C60.3492 41.1898 59.9664 41.3989 59.6068 41.579C59.253 41.759 58.644 42.0785 58.2612 42.2876C57.8784 42.5025 57.1592 42.8743 56.6662 43.1182C56.1732 43.368 55.5294 43.6468 55.2452 43.7397C54.9552 43.8385 54.3346 43.9779 53.8648 44.065C53.2558 44.1696 52.7976 44.2102 52.2988 44.2102C51.7362 44.2102 51.5448 44.187 51.3534 44.0999C51.2258 44.0418 51.0634 43.9198 50.9938 43.8327C50.901 43.7223 50.8662 43.5887 50.8662 43.397C50.8662 43.2518 50.9068 42.9846 50.959 42.8104C51.017 42.6303 51.22 42.2528 51.452 41.9159C51.6724 41.5964 52.003 41.2014 52.1886 41.0388C52.3684 40.8761 52.67 40.6264 52.8498 40.4754C53.0296 40.3301 53.2674 40.1733 53.3718 40.1268C53.4762 40.0804 53.656 40.0281 53.772 40.0049C53.8822 39.9874 54.1084 39.8887 54.265 39.7841C54.4216 39.6854 54.7348 39.5228 54.9552 39.4182C55.1814 39.3137 55.512 39.1742 55.6976 39.0987C55.8832 39.0232 56.0688 38.9361 56.1036 38.8954C56.1442 38.8606 56.3066 38.7328 56.469 38.6224C56.6314 38.5063 56.8692 38.3611 56.9968 38.2914C57.1244 38.2275 57.31 38.1055 57.4144 38.0242C57.542 37.9138 57.5942 37.8209 57.5942 37.6931C57.5942 37.6001 57.5652 37.4665 57.5304 37.3968C57.4956 37.3271 57.397 37.1935 57.31 37.1064C57.2288 37.0135 57.0896 36.9031 57.0026 36.8567C56.9156 36.8102 56.701 36.7753 56.527 36.7753C56.3472 36.7753 56.0398 36.8334 55.8426 36.8973C55.6396 36.967 55.1756 37.1819 54.8102 37.3678C54.4448 37.5595 53.946 37.8209 53.7024 37.9545C53.4588 38.0881 53.0644 38.3785 52.8324 38.5934C52.5946 38.8141 52.2466 39.1045 52.0552 39.2381C51.8638 39.3775 51.626 39.5286 51.5274 39.5808C51.4288 39.6331 51.104 39.7144 50.8024 39.7667C50.5008 39.819 50.0658 39.8887 49.8396 39.9119C49.6076 39.941 49.335 39.9874 49.2306 40.0223C49.1262 40.0571 48.784 40.1385 48.465 40.2024C48.1518 40.2662 47.769 40.3185 47.6124 40.3185C47.4036 40.3185 47.2992 40.2895 47.2064 40.1965C47.1252 40.1152 47.102 40.0397 47.131 39.9526C47.1484 39.8829 47.2006 39.7667 47.247 39.6912C47.2934 39.6215 47.3862 39.5286 47.45 39.4879C47.5138 39.4531 47.6704 39.2846 47.7922 39.1162C47.9198 38.9477 48.2272 38.6631 48.4708 38.4714C48.7202 38.2855 49.0044 38.0822 49.103 38.0184C49.2016 37.9603 49.5206 37.7279 49.8164 37.5072C50.1064 37.2865 50.3442 37.0832 50.3442 37.06C50.3442 37.0309 50.5878 36.8276 50.8836 36.6069C51.1736 36.3862 51.481 36.1364 51.5622 36.0493C51.6434 35.9621 51.9044 35.7472 52.1422 35.5672C52.38 35.3871 52.815 35.027 53.0992 34.7714C53.3892 34.5158 53.7778 34.1789 53.9692 34.0279C54.1606 33.8769 54.4042 33.6504 54.5086 33.5226C54.613 33.3948 54.8508 33.1915 55.0306 33.0637C55.2104 32.9417 55.4134 32.7791 55.4772 32.7094C55.541 32.6397 55.7382 32.4828 55.9122 32.3609C56.0862 32.2389 56.3124 32.0588 56.4052 31.9543C56.5038 31.8497 56.73 31.6638 56.9156 31.5361C57.107 31.4083 57.5536 31.0307 57.9132 30.7054C58.2786 30.3744 58.6846 30.02 58.818 29.9271C58.9572 29.8225 59.137 29.747 59.2298 29.747C59.369 29.747 59.4096 29.7819 59.5024 29.991ZM40.577 32.5061C40.6002 32.5584 40.5828 32.6745 40.5422 32.7675C40.5016 32.8604 40.403 32.9824 40.316 33.0347C40.2348 33.0927 39.997 33.2786 39.7882 33.4587C39.5852 33.6387 39.3126 33.8769 39.1908 33.9814C39.069 34.0918 38.837 34.2893 38.6688 34.4113C38.5006 34.5332 38.2338 34.7598 38.0714 34.9108C37.909 35.056 37.6712 35.2593 37.5494 35.3581C37.4218 35.4568 37.1608 35.6252 36.9752 35.724C36.7838 35.8227 36.4996 35.997 36.343 36.1074C36.1922 36.2177 36.0414 36.3107 36.0124 36.3107C35.9834 36.3107 35.9602 36.2816 35.9602 36.241C35.9602 36.2061 36.082 36.0377 36.2386 35.875C36.3894 35.7066 36.6794 35.3697 36.8882 35.1257C37.097 34.8818 37.4276 34.5507 37.6306 34.388C37.8278 34.2254 38.0656 34.0047 38.1526 33.9001C38.2396 33.7956 38.5702 33.5342 38.8892 33.3193C39.2082 33.0985 39.5852 32.8255 39.7302 32.7036C39.8752 32.5874 40.0318 32.477 40.0782 32.4596C40.1246 32.4422 40.2522 32.4248 40.3566 32.4248C40.4726 32.419 40.5596 32.4538 40.577 32.5061ZM47.914 36.6534C48.0068 36.7289 48.0474 36.8218 48.0474 36.967C48.0474 37.1471 47.9894 37.24 47.6762 37.5769C47.4674 37.8034 47.0498 38.2449 46.7482 38.5702C46.4466 38.8954 46.116 39.2149 46.0174 39.273C45.9188 39.3369 45.768 39.3892 45.681 39.3892C45.5998 39.3892 45.478 39.3369 45.42 39.2788C45.3562 39.2149 45.2866 39.0697 45.2634 38.9535C45.2402 38.8141 45.2576 38.6631 45.3214 38.4888C45.3852 38.3262 45.5882 38.0706 45.8956 37.7512C46.1624 37.4898 46.5162 37.1529 46.6844 37.0077C46.8584 36.8625 47.0788 36.6998 47.1774 36.6475C47.276 36.5953 47.45 36.5488 47.566 36.543C47.6936 36.543 47.8328 36.5895 47.914 36.6534ZM71.3518 37.513C71.723 37.7163 72.1232 37.9138 72.2508 37.9487C72.3726 37.9777 72.5408 38.059 72.6336 38.1229C72.7206 38.1868 72.8192 38.2855 72.854 38.3552C72.8888 38.4191 72.9004 38.5353 72.883 38.6108C72.8598 38.7038 72.7032 38.8432 72.4306 39.0174C72.2044 39.1626 71.955 39.3659 71.8738 39.4647C71.7868 39.5692 71.6128 39.7551 71.4852 39.8829C71.3576 40.0107 71.0966 40.2082 70.911 40.3185C70.7254 40.4289 70.3832 40.667 70.1512 40.8471C69.9192 41.033 69.577 41.2595 69.3914 41.3524C69.2 41.4454 68.881 41.5848 68.678 41.6603C68.475 41.73 68.1386 41.9042 67.9298 42.0437C67.721 42.1831 67.5006 42.2934 67.4484 42.2934C67.3962 42.2934 67.1584 42.4328 66.9264 42.6013C66.6886 42.7697 66.3522 42.973 66.1782 43.0427C66.0042 43.1182 65.7374 43.2518 65.5866 43.3506C65.4358 43.4435 65.2212 43.5481 65.1052 43.5771C64.9892 43.612 64.8152 43.6178 64.7224 43.6003C64.6296 43.5771 64.5252 43.5132 64.4962 43.4493C64.4498 43.3738 64.4614 43.2809 64.5252 43.124C64.5774 43.0021 64.8326 42.6826 65.0994 42.4096C65.3662 42.1366 65.6446 41.8229 65.72 41.7126C65.7896 41.6022 66.01 41.3234 66.2072 41.1027C66.3986 40.8761 66.6306 40.5799 66.7234 40.4347C66.8104 40.2895 67.0192 40.0688 67.1816 39.941C67.344 39.8132 67.605 39.5925 67.7674 39.4473C67.924 39.302 68.156 39.0465 68.2778 38.878C68.4054 38.7038 68.736 38.3378 69.0144 38.059C69.287 37.7802 69.6118 37.484 69.7278 37.391C69.8496 37.2981 70.0468 37.1935 70.1628 37.1529C70.2846 37.1064 70.447 37.089 70.5282 37.1064C70.6094 37.1238 70.9748 37.3097 71.3518 37.513ZM75.8642 39.2149C76.073 39.3078 76.3224 39.395 76.4152 39.4182C76.5138 39.4414 76.7052 39.4995 76.8502 39.5518C76.9952 39.6041 77.2562 39.7319 77.4302 39.8422C77.6042 39.9468 77.8014 40.0455 77.8652 40.0571C77.929 40.0746 78.1668 40.1094 78.3872 40.1385C78.6134 40.1675 79.147 40.2604 79.5762 40.3476C80.0344 40.4405 80.5042 40.5683 80.7072 40.667C80.8986 40.76 81.1132 40.8878 81.1886 40.9575C81.3162 41.0794 81.3162 41.0911 81.2234 41.1956C81.1712 41.2537 81.0494 41.3292 80.945 41.3582C80.8464 41.3931 80.3766 41.486 79.8952 41.5615C79.4196 41.6371 78.5844 41.7707 78.0392 41.8578C77.4998 41.9391 76.8328 42.0437 76.5602 42.0901C76.2876 42.1308 75.783 42.1831 75.4292 42.2063C75.0812 42.2237 74.594 42.2121 74.3504 42.1831C74.1068 42.1482 73.6834 42.0495 73.4166 41.9565C73.144 41.8578 72.8482 41.7416 72.7496 41.6951C72.651 41.6429 72.5582 41.5557 72.535 41.5093C72.5176 41.457 72.5002 41.3292 72.5002 41.2305C72.5002 41.1201 72.5582 40.9807 72.6336 40.8936C72.7032 40.8064 72.9816 40.5567 73.2542 40.336C73.5268 40.1094 73.811 39.8538 73.8922 39.7667C73.9734 39.6796 74.2112 39.4937 74.4258 39.3485C74.6404 39.2033 74.8898 39.0697 74.9768 39.0407C75.0696 39.0116 75.2204 39.0058 75.3132 39.0232C75.4118 39.0407 75.6554 39.1278 75.8642 39.2149Z" fill="#4E5272"/>
</svg>
