<svg width="263" height="27" viewBox="0 0 263 27" fill="none" xmlns="http://www.w3.org/2000/svg">
<mask id="mask0_96_2" style="mask-type:luminance" maskUnits="userSpaceOnUse" x="114" y="0" width="35" height="27">
<path d="M131.252 1.70223C132.046 1.83425 132.798 2.16333 133.443 2.66141C131.341 4.37437 129.52 7.34119 129.132 11.9156H129.05C128.834 11.9317 128.61 11.9496 128.379 11.971H125.307C125.757 6.94825 128.172 3.55807 131.252 1.70223ZM138.177 0.782346C142.563 0.782346 144.787 4.42439 146.158 8.43612H146.875L146.672 0.782346H146.155L144.997 2.37919C142.702 0.669819 140.1 0 137.358 0C137.237 0 137.115 0.0142906 136.992 0.0178627L137.277 0.864512C137.575 0.813608 137.876 0.786141 138.177 0.782346ZM140.096 13.9751V14.7556C142.526 14.9343 143.04 15.2736 143.04 17.0223V19.7784C143.04 23.5687 140.848 25.7264 137.287 25.7264C133.925 25.7264 129.255 23.24 129.082 14.2234C128.87 14.2073 128.651 14.1948 128.42 14.1859H125.249C125.464 22.7595 131.497 26.5105 137.044 26.5105C140.438 26.5105 143.589 25.1334 146.501 23.3507V16.7991C146.501 15.4255 146.912 14.9414 149 14.7556V13.9751H140.096ZM120.855 23.9348V13.4821H128.42C131.516 13.5964 133.494 14.2073 133.88 18.3048H134.497V8.504H133.88C133.026 12.6373 131.362 12.4104 128.42 12.6765H120.855V0.887732H129.053C131.569 0.887732 132.73 1.04313 134.668 2.76501C135.811 3.71233 136.796 4.84875 137.582 6.1284L138.272 5.97476L136.297 0.0803804H114V0.88059C115.704 0.88059 116.942 1.07171 116.942 3.02401V23.5526C116.942 25.5049 116.014 25.696 114.076 25.696V26.5016H124.457V25.696C121.745 25.621 120.855 25.1619 120.855 23.9348Z" fill="white"/>
</mask>
<g mask="url(#mask0_96_2)">
<path d="M108.488 27.5099V-1.13847H150.121V27.5099H108.488Z" fill="#E5E7EB" stroke="#E5E7EB" stroke-width="0.41641"/>
</g>
<rect x="169" y="13" width="94" height="1" fill="#E5E7EB"/>
<rect x="169" y="17" width="21" height="1" fill="#E5E7EB"/>
<rect x="73" y="17" width="21" height="1" fill="#E5E7EB"/>
<rect x="169" y="9" width="21" height="1" fill="#E5E7EB"/>
<rect x="73" y="9" width="21" height="1" fill="#E5E7EB"/>
<rect y="13" width="94" height="1" fill="#E5E7EB"/>
</svg>
