<?xml version="1.0" encoding="UTF-8"?><svg id="Layer_2" xmlns="http://www.w3.org/2000/svg" viewBox="0 0 263 33"><defs><style>.cls-1{fill:none;}.cls-2{fill:#e5e7eb;}</style></defs><g id="Layer_1-2"><rect class="cls-2" x="169" y="15.5" width="94" height="1"/><rect class="cls-2" x="169" y="19.5" width="21" height="1"/><rect class="cls-2" x="73" y="19.5" width="21" height="1"/><rect class="cls-2" x="169" y="11.5" width="21" height="1"/><rect class="cls-2" x="73" y="11.5" width="21" height="1"/><rect class="cls-2" y="15.5" width="94" height="1"/><polyline class="cls-1" points="113.58 33 113.58 0 150.58 0 150.58 33"/><path class="cls-2" d="M124.2,32.51l-6.43-2.48c1.95,1.46,11.44-3.74,10.91-6.75l-1.95-1.46s-9.88-1.31-12.76-10.39c0,0,6.18,2.62,13.49.82,0,0,.97-1.36-2.87-5.58,0,0,11.54.97,12.02,7.04,0,0,5.06-6.84,10.95-2.18,0,0,.78-.58.05-2.33,0,0-3.65,1.07-4.87-2.14,0,0,2.58-.63,3.7.34,0,0-.19-.73-1.02-1.7,0,0-1.85,2.14-5.21-.34,0,0,.92-1.94,3.46-1.16,0,0-5.4-.63-6.43-2.67,0,0,2.34-2.96,7.01,1.99,0,0-.1-2.23.49-3.06,0,0,3.75.82,1.46,4.37,0,0,.73.87,1.07,1.65,0,0,.15-2.47,1.31-3.01,0,0,3.16,1.5-.19,5.05,0,0,1.9,5.87-.39,7.38,0,0,.54-2.28-.05-2.67,0,0-4.04-.05-5.45,5.19,0,0-.49,10.82-14.65,9.37,0,0-3.65,3.11-3.65,4.71"/></g></svg>