<svg width="115" height="31" viewBox="0 0 115 31" fill="none" xmlns="http://www.w3.org/2000/svg">
<mask id="mask0_2011_2" style="mask-type:luminance" maskUnits="userSpaceOnUse" x="0" y="0" width="42" height="31">
<path d="M20.3048 2.14325C21.24 2.29326 22.125 2.6672 22.8844 3.23319C20.4103 5.17964 18.267 8.55089 17.8103 13.7489H17.7129C17.4592 13.7671 17.1953 13.7874 16.9233 13.8118H13.3085C13.8383 8.10438 16.6798 4.25207 20.3048 2.14325ZM28.4559 1.09798C33.6173 1.09798 36.2356 5.23648 37.8492 9.79506H38.6935L38.454 1.09798H37.8451L36.4832 2.9125C33.7817 0.970109 30.7189 0.208984 27.4918 0.208984C27.3497 0.208984 27.2056 0.225223 27.0615 0.229282L27.3964 1.19134C27.7467 1.1335 28.1009 1.10229 28.4559 1.09798ZM30.7149 16.0891V16.976C33.5747 17.179 34.1796 17.5646 34.1796 19.5517V22.6835C34.1796 26.9904 31.5998 29.4422 27.4086 29.4422C23.4507 29.4422 17.9544 26.617 17.7514 16.3712C17.5018 16.3529 17.244 16.3387 16.9721 16.3286H13.2395C13.4932 26.071 20.593 30.3333 27.1224 30.3333C31.1168 30.3333 34.825 28.7684 38.2531 26.7428V19.298C38.2531 17.7372 38.7361 17.1871 41.1941 16.976V16.0891H30.7149ZM8.06792 27.4065V15.5289H16.9721C20.6153 15.6588 22.9433 16.3529 23.398 21.009H24.1246V9.8722H23.398C22.3933 14.5689 20.4346 14.3111 16.9721 14.6135H8.06792V1.21773H17.717C20.6782 1.21773 22.0442 1.39431 24.3255 3.35091C25.6715 4.42736 26.8304 5.71869 27.7557 7.17277L28.5675 6.99819L26.2436 0.300322H0V1.20961C2.00531 1.20961 3.46261 1.42679 3.46261 3.64521V26.9721C3.46261 29.1906 2.37065 29.4077 0.0893055 29.4077V30.3231H12.3079V29.4077C9.11521 29.3225 8.06792 28.8009 8.06792 27.4065Z" fill="white"/>
</mask>
<g mask="url(#mask0_2011_2)">
<path d="M-6.49915 31.4721V-1.08796H42.5256V31.4721H-6.49915Z" fill="#F59E0B" stroke="white" stroke-width="0.466667"/>
</g>
<path d="M47.0008 13.2517V12.8599C47.9346 12.8599 48.3831 12.7666 48.3831 11.8126V1.80026C48.3831 0.846323 47.7862 0.752967 46.9625 0.752967V0.357178H56.4144L57.3664 3.23322L57.0313 3.30831C56.6575 2.68695 56.1839 2.1315 55.629 1.66428C54.6975 0.828058 54.1413 0.763112 52.9233 0.763112H50.2707V6.50706H51.6712C53.0917 6.37714 53.8935 6.48877 54.3097 4.47739H54.6079V9.25927H54.3097C54.1231 7.26007 53.1692 6.96169 51.6712 6.90489H50.2707V12.0054C50.2707 12.6042 50.701 12.8275 52.0081 12.866V13.2577L47.0008 13.2517Z" fill="black"/>
<path d="M57.4821 13.2517V12.8599C57.7463 12.8408 57.9997 12.746 58.2115 12.5869C58.4234 12.4278 58.5853 12.2112 58.6777 11.9629L62.4871 2.01748L62.1525 1.4573C62.7611 1.10211 63.2161 0.541921 63.6645 0L68.0363 11.1348C68.4423 12.1983 68.6719 12.7036 69.6803 12.8539V13.2456H64.8093V12.8599C65.3693 12.8599 66.3782 12.8599 66.3782 12.111C66.3782 11.5691 65.331 9.17812 65.0893 8.35613H60.6242C60.4375 9.03 59.3535 11.5691 59.3535 12.0562C59.3535 12.7848 60.3442 12.7848 60.8678 12.8681V13.2598L57.4821 13.2517ZM60.8249 7.85279H64.8844L62.7737 2.5655L60.8249 7.85279Z" fill="black"/>
<path d="M71.0626 13.2517V12.8599C72.0898 12.8599 72.5382 12.7666 72.5382 11.8126V1.80026C72.5382 0.846323 71.8662 0.752967 71.099 0.752967V0.357178H76.1997V0.763112C74.929 0.763112 74.4259 1.08177 74.4259 1.99714V11.3925C74.4259 12.8315 74.8926 12.8701 76.7051 12.8701C77.4793 12.8919 78.254 12.8478 79.0212 12.7381C80.0114 12.5697 80.5332 11.9912 81.0955 11.2057C81.5822 10.5279 82.0312 9.82315 82.439 9.09487H82.8306L81.767 13.2618L71.0626 13.2517Z" fill="black"/>
<path d="M84.9413 13.2517V12.8599C85.9703 12.8599 86.6423 12.7666 86.6423 11.8126V1.80026C86.6423 0.846323 85.9703 0.752967 84.9413 0.752967V0.357178H90.2693V0.763112C89.2039 0.763112 88.5318 0.856478 88.5318 1.81042V11.8228C88.5318 12.7767 89.2039 12.8701 90.2693 12.8701V13.2618L84.9413 13.2517Z" fill="black"/>
<path d="M103.586 0.763112H103.884V5.10658H103.549C103.231 2.67099 101.625 0.586535 99.0089 0.586535C97.2897 0.586535 95.7959 1.8368 95.0674 3.33064C94.5438 4.41448 94.3754 5.85352 94.3754 7.04898C94.3264 8.50862 94.7384 9.94652 95.5523 11.1591C95.8967 11.7436 96.3848 12.2306 96.9705 12.5737C97.5557 12.9168 98.2188 13.1048 98.8974 13.1197C101.512 13.1197 103.137 11.1956 103.586 8.85741H103.941V13.0223H103.549L103.025 12.1454C101.8 13.0107 100.341 13.4861 98.8404 13.5094C94.7814 13.5094 92.2847 10.9865 92.2847 6.9333C92.2847 3.02821 95.0856 0.188721 99.0089 0.188721C100.523 0.188721 101.737 0.748907 102.987 1.55266L103.586 0.763112Z" fill="black"/>
<path d="M58.5274 20.9745H58.1354C57.3888 18.957 56.1731 17.1181 53.7819 17.1181C51.876 17.1181 48.8133 18.9103 48.8133 23.613C48.8133 28.3584 51.4294 29.6472 53.297 29.6472C55.2393 29.6472 56.4349 28.5634 56.4349 26.6575V25.2753C56.4349 24.3965 56.1544 24.2301 54.8291 24.1367V23.7429H59.6862V24.1367C58.5456 24.2301 58.3221 24.4716 58.3221 25.1637V28.4518C56.7331 29.3468 55.0158 30.0389 53.165 30.0389C50.084 30.0389 46.7208 28.0965 46.7208 23.613C46.7208 18.9448 50.1204 16.7122 53.3334 16.7122C54.8291 16.7122 56.2478 17.0491 57.5003 17.9076L58.1354 17.1059H58.4159L58.5274 20.9745Z" fill="black"/>
<path d="M62.0386 16.901C63.7028 16.901 65.4201 16.8279 67.1393 16.8279C69.3821 16.8279 71.903 17.6865 71.903 20.3392C71.903 22.2999 70.7074 23.1808 68.97 23.7572C70.2445 25.1319 71.3202 26.6787 72.1648 28.3523C72.5018 29.0627 73.0982 29.3996 73.9587 29.3996V29.7873H70.8577C70.0718 28.4416 68.578 25.8822 67.458 24.7253C66.8775 24.1164 66.037 23.9967 65.225 23.9581V28.3482C65.225 29.3022 65.674 29.3956 66.8145 29.3956V29.7873H61.9654V29.3956C63.0107 29.3956 63.4027 29.3022 63.3476 28.3482V18.34C63.3476 17.3881 62.8992 17.2947 62.0386 17.2947V16.901ZM69.867 20.3209C69.867 18.3968 68.6149 17.2196 66.654 17.2196C65.7001 17.2196 65.2334 17.3678 65.2334 18.34V23.5704C65.7934 23.5704 66.3558 23.5339 66.9158 23.4953C68.8398 23.3472 69.867 22.2247 69.867 20.3209Z" fill="black"/>
<path d="M88.3614 23.4955C88.3614 25.6449 87.1089 30.0533 81.6918 30.0533C76.6845 30.0533 75.3591 25.8682 75.3591 23.5706C75.3591 17.9484 79.9362 16.7327 81.7851 16.7327C84.9048 16.7327 88.3614 18.8435 88.3614 23.4955ZM81.9154 17.1264C79.6824 17.1264 77.3584 19.1053 77.3584 23.6457C77.3584 26.8769 78.9273 29.6616 81.6918 29.6616C84.9048 29.6616 86.3599 26.2416 86.3599 23.4772C86.3622 18.8435 83.559 17.1264 81.9154 17.1264Z" fill="black"/>
<path d="M90.5473 16.9011H95.4184V17.2948C94.0179 17.2745 93.7748 17.7231 93.7748 18.7319V26.2233C93.7748 27.5507 94.2597 29.6616 97.3611 29.6616C100.462 29.6616 101.173 27.6989 101.173 25.5129V18.7319C101.173 17.443 100.519 17.3679 99.2301 17.2948V16.9011H103.265V17.2948C102.275 17.2948 101.676 17.6866 101.676 18.7319V25.5129C101.676 28.1109 100.688 30.0533 96.7825 30.0533C92.9889 30.0533 91.8871 28.0358 91.8871 25.72V18.7319C91.8871 17.4999 91.7569 17.3496 90.5431 17.2948L90.5473 16.9011Z" fill="black"/>
<path d="M104.931 16.901C106.687 16.8645 108.5 16.8645 110.312 16.8645C112.748 16.8645 114.832 18.0417 114.832 20.7208C114.832 23.4487 112.161 24.3073 109.882 24.3073H108.201V28.3666C108.201 29.3205 108.873 29.4139 109.844 29.4139V29.7874H104.972V29.3956C105.999 29.3956 106.318 29.3023 106.318 28.3483V18.3401C106.318 17.3881 105.869 17.2948 104.936 17.2948L104.931 16.901ZM108.201 23.9013H108.81C111.333 23.9013 112.791 23.7146 112.791 20.5017C112.791 18.5775 111.93 17.2542 109.876 17.2542C108.624 17.2542 108.195 17.2928 108.195 18.338L108.201 23.9013Z" fill="black"/>
</svg>
