<svg width="1120" height="295" viewBox="0 0 1120 295" fill="none" xmlns="http://www.w3.org/2000/svg">
<g clip-path="url(#clip0_2_549)">
<g clip-path="url(#clip1_2_549)">
<g clip-path="url(#clip2_2_549)">
<mask id="mask0_2_549" style="mask-type:luminance" maskUnits="userSpaceOnUse" x="0" y="2" width="401" height="293">
<path d="M197.255 20.8209C206.34 22.2782 214.938 25.9109 222.316 31.4093C198.281 50.3185 177.459 83.0692 173.022 133.566H172.076C169.611 133.744 167.048 133.941 164.406 134.178H129.288C134.435 78.7315 162.04 41.3075 197.255 20.8209ZM276.441 10.6663C326.583 10.6663 352.019 50.8707 367.694 95.1561H375.897L373.57 10.6663H367.655L354.424 28.2939C328.18 9.42414 298.426 2.03003 267.075 2.03003C265.695 2.03003 264.295 2.18778 262.895 2.22722L266.148 11.5734C269.551 11.0114 272.992 10.7082 276.441 10.6663ZM298.386 156.301V164.917C326.169 166.889 332.045 170.635 332.045 189.939V220.363C332.045 262.204 306.983 286.023 266.267 286.023C227.817 286.023 174.422 258.576 172.45 159.041C170.025 158.864 167.521 158.726 164.879 158.627H128.618C131.083 253.272 200.055 294.679 263.486 294.679C302.291 294.679 338.315 279.476 371.618 259.798V187.474C371.618 172.311 376.311 166.968 400.189 164.917V156.301H298.386ZM78.3777 266.246V150.859H164.879C200.272 152.12 222.888 158.864 227.305 204.096H234.363V95.9054H227.305C217.544 141.532 198.517 139.028 164.879 141.966H78.3777V11.8297H172.115C200.883 11.8297 214.153 13.5451 236.316 32.5529C249.391 43.0103 260.65 55.5552 269.638 69.6812L277.525 67.9852L254.949 2.91735H0.000213623V11.7508C19.4812 11.7508 33.6384 13.8607 33.6384 35.412V262.026C33.6384 283.578 23.0304 285.687 0.867791 285.687V294.58H119.568V285.687C88.5519 284.859 78.3777 279.792 78.3777 266.246Z" fill="white"/>
</mask>
<g mask="url(#mask0_2_549)">
<path d="M-63.1364 305.742V-10.5697H413.125V305.742H-63.1364Z" fill="#F6F6F3" stroke="#F6F6F3" stroke-width="4.53353"/>
</g>
<path d="M456.601 128.739V124.933C465.672 124.933 470.029 124.026 470.029 114.758V17.4916C470.029 8.22432 464.231 7.31739 456.229 7.31739V3.47241H548.051L557.3 31.4123L554.044 32.1418C550.413 26.1055 545.812 20.7094 540.421 16.1706C531.372 8.04688 525.968 7.41595 514.136 7.41595H488.367V63.2168H501.972C515.772 61.9546 523.561 63.039 527.605 43.4991H530.502V89.9537H527.605C525.792 70.5321 516.525 67.6333 501.972 67.0816H488.367V116.632C488.367 122.448 492.547 124.618 505.246 124.992V128.797L456.601 128.739Z" fill="#F6F6F3"/>
<path d="M558.423 128.736V124.931C560.989 124.744 563.451 123.823 565.509 122.278C567.567 120.733 569.14 118.629 570.038 116.216L607.045 19.5993L603.795 14.1573C609.706 10.7067 614.127 5.26461 618.483 0L660.953 108.171C664.898 118.503 667.128 123.412 676.925 124.872V128.677H629.604V124.931C635.044 124.931 644.846 124.931 644.846 117.655C644.846 112.39 634.673 89.1628 632.324 81.1774H588.947C587.134 87.7239 576.603 112.39 576.603 117.122C576.603 124.201 586.227 124.201 591.314 125.009V128.815L558.423 128.736ZM590.897 76.2876H630.334L609.829 24.9231L590.897 76.2876Z" fill="#F6F6F3"/>
<path d="M690.355 128.739V124.933C700.333 124.933 704.69 124.026 704.69 114.758V17.4916C704.69 8.22432 698.161 7.31739 690.708 7.31739V3.47241H740.26V7.41595C727.915 7.41595 723.028 10.5116 723.028 19.4042V110.677C723.028 124.657 727.561 125.031 745.17 125.031C752.691 125.244 760.216 124.815 767.669 123.75C777.29 122.113 782.358 116.494 787.821 108.863C792.55 102.278 796.911 95.4316 800.873 88.3566H804.677L794.345 128.837L690.355 128.739Z" fill="#F6F6F3"/>
<path d="M825.182 128.739V124.933C835.178 124.933 841.706 124.026 841.706 114.758V17.4916C841.706 8.22432 835.178 7.31739 825.182 7.31739V3.47241H876.941V7.41595C866.591 7.41595 860.063 8.32297 860.063 17.5902V114.857C860.063 124.124 866.591 125.031 876.941 125.031V128.837L825.182 128.739Z" fill="#F6F6F3"/>
<path d="M1006.31 7.41574H1009.2V49.6112H1005.95C1002.86 25.9503 987.258 5.70034 961.843 5.70034C945.141 5.70034 930.63 17.8464 923.553 32.3585C918.466 42.8877 916.829 56.8676 916.829 68.4812C916.353 82.6611 920.357 96.6299 928.263 108.409C931.609 114.089 936.351 118.819 942.04 122.152C947.726 125.485 954.168 127.311 960.759 127.457C986.156 127.457 1001.95 108.764 1006.31 86.0495H1009.76V126.51H1005.95L1000.86 117.992C988.953 126.398 974.782 131.016 960.206 131.242C920.774 131.242 896.519 106.733 896.519 67.3573C896.519 29.4206 923.73 1.83569 961.843 1.83569C976.554 1.83569 988.346 7.27774 1000.49 15.0859L1006.31 7.41574Z" fill="#F6F6F3"/>
<path d="M568.577 203.763H564.769C557.515 184.164 545.705 166.3 522.475 166.3C503.96 166.3 474.207 183.711 474.207 229.396C474.207 275.496 499.622 288.017 517.765 288.017C536.634 288.017 548.249 277.488 548.249 258.973V245.545C548.249 237.007 545.524 235.39 532.649 234.483V230.658H579.834V234.483C568.754 235.39 566.582 237.737 566.582 244.46V276.403C551.145 285.098 534.462 291.822 516.482 291.822C486.552 291.822 453.879 272.952 453.879 229.396C453.879 184.046 486.905 162.356 518.119 162.356C532.649 162.356 546.431 165.629 558.599 173.97L564.769 166.182H567.493L568.577 203.763Z" fill="#F6F6F3"/>
<path d="M602.687 164.19C618.854 164.19 635.537 163.48 652.239 163.48C674.027 163.48 698.517 171.821 698.517 197.592C698.517 216.639 686.902 225.197 670.024 230.797C682.405 244.152 692.855 259.178 701.06 275.437C704.334 282.338 710.128 285.612 718.487 285.612V289.378H688.362C680.728 276.305 666.216 251.441 655.335 240.202C649.695 234.287 641.531 233.123 633.642 232.748V275.398C633.642 284.665 638.004 285.572 649.083 285.572V289.378H601.976V285.572C612.131 285.572 615.939 284.665 615.404 275.398V178.17C615.404 168.923 611.047 168.016 602.687 168.016V164.19ZM678.737 197.414C678.737 178.722 666.574 167.286 647.524 167.286C638.257 167.286 633.724 168.725 633.724 178.17V228.982C639.164 228.982 644.627 228.627 650.067 228.253C668.759 226.813 678.737 215.909 678.737 197.414Z" fill="#F6F6F3"/>
<path d="M858.406 228.249C858.406 249.13 846.238 291.957 793.613 291.957C744.968 291.957 732.093 251.299 732.093 228.979C732.093 174.361 776.558 162.55 794.519 162.55C824.826 162.55 858.406 183.056 858.406 228.249ZM795.784 166.375C774.091 166.375 751.514 185.6 751.514 229.708C751.514 261.099 766.756 288.151 793.613 288.151C824.826 288.151 838.962 254.927 838.962 228.072C838.984 183.056 811.751 166.375 795.784 166.375Z" fill="#F6F6F3"/>
<path d="M879.642 164.187H926.963V168.012C913.358 167.815 910.996 172.172 910.996 181.972V254.75C910.996 267.645 915.707 288.151 945.836 288.151C975.962 288.151 982.866 269.084 982.866 247.848V181.972C982.866 169.451 976.515 168.722 963.993 168.012V164.187H1003.19V168.012C993.57 168.012 987.754 171.817 987.754 181.972V247.848C987.754 273.087 978.152 291.957 940.215 291.957C903.362 291.957 892.658 272.358 892.658 249.86V181.972C892.658 170.004 891.393 168.544 879.602 168.012L879.642 164.187Z" fill="#F6F6F3"/>
<path d="M1019.38 164.186C1036.43 163.831 1054.04 163.831 1071.65 163.831C1095.31 163.831 1115.56 175.267 1115.56 201.294C1115.56 227.795 1089.61 236.135 1067.47 236.135H1051.15V275.571C1051.15 284.838 1057.67 285.745 1067.1 285.745V289.373H1019.77V285.567C1029.75 285.567 1032.85 284.661 1032.85 275.393V178.166C1032.85 168.918 1028.49 168.011 1019.42 168.011L1019.38 164.186ZM1051.15 232.192H1057.06C1081.57 232.192 1095.73 230.378 1095.73 199.165C1095.73 180.473 1087.37 167.617 1067.41 167.617C1055.25 167.617 1051.09 167.991 1051.09 178.146L1051.15 232.192Z" fill="#F6F6F3"/>
</g>
</g>
</g>
<defs>
<clipPath id="clip0_2_549">
<rect width="1120" height="294.369" fill="white"/>
</clipPath>
<clipPath id="clip1_2_549">
<rect width="1119.78" height="294.68" fill="white"/>
</clipPath>
<clipPath id="clip2_2_549">
<rect width="1119.78" height="294.68" fill="white"/>
</clipPath>
</defs>
</svg>
